<svg xmlns="http://www.w3.org/2000/svg" xmlns:xlink="http://www.w3.org/1999/xlink" width="1920.738" height="274.914"
     viewBox="0 0 1920.738 274.914">


    <g id="Group_659" data-name="Group 659" transform="translate(-21.804 676.206)" opacity="0.19">
        <path id="Path_297" data-name="Path 297"
              d="M527.659,280.862s102.629,43.847,292.348,17.56c188.472-26.114,360.3-157.842,706.549-190.945s679.686,30.736,679.686,30.736"
              transform="translate(-233.361 -69.604)" fill="rgba(0,0,0,0)" stroke="#b2d33c" stroke-miterlimit="10"
              stroke-width="0.75"/>
        <path id="Path_298" data-name="Path 298"
              d="M527.659,287.027s104.768,44.33,292.414,18.963c189.7-25.356,354.481-153.59,700.79-185.9,348.266-32.4,685.381,41.86,685.381,41.86"
              transform="translate(-233.361 -75.769)" fill="rgba(0,0,0,0)" stroke="#b2d33c" stroke-miterlimit="10"
              stroke-width="0.75"/>
        <path id="Path_299" data-name="Path 299"
              d="M527.659,292.989S634.566,337.8,820.14,313.356c190.92-24.6,348.665-149.338,695.031-180.857,350.28-31.7,691.076,52.983,691.076,52.983"
              transform="translate(-233.361 -81.731)" fill="rgba(0,0,0,0)" stroke="#b2d33c" stroke-miterlimit="10"
              stroke-width="0.75"/>
        <path id="Path_300" data-name="Path 300"
              d="M527.659,298.8s109,44.924,292.547,21.771c192.1-24.231,342.849-145.085,689.271-175.813,352.294-31.006,696.772,64.107,696.772,64.107"
              transform="translate(-233.361 -87.542)" fill="rgba(0,0,0,0)" stroke="#b2d33c" stroke-miterlimit="10"
              stroke-width="0.75"/>
        <path id="Path_301" data-name="Path 301"
              d="M527.659,304.5s111.128,45.313,292.614,23.174c193.308-23.581,337.033-140.833,683.511-170.768,354.308-30.307,702.467,75.231,702.467,75.231"
              transform="translate(-233.361 -93.238)" fill="rgba(0,0,0,0)" stroke="#b2d33c" stroke-miterlimit="10"
              stroke-width="0.75"/>
        <path id="Path_302" data-name="Path 302"
              d="M527.659,310.1s113.26,45.717,292.68,24.579c194.524-22.918,331.217-136.581,677.752-165.724,356.323-29.607,708.163,86.354,708.163,86.354"
              transform="translate(-233.361 -98.844)" fill="rgba(0,0,0,0)" stroke="#b2d33c" stroke-miterlimit="10"
              stroke-width="0.75"/>
        <path id="Path_303" data-name="Path 303"
              d="M527.659,315.635s115.394,46.136,292.747,25.982c195.741-22.243,325.4-132.328,671.993-160.68,358.336-28.909,713.858,97.478,713.858,97.478"
              transform="translate(-233.361 -104.377)" fill="rgba(0,0,0,0)" stroke="#b2d33c" stroke-miterlimit="10"
              stroke-width="0.75"/>
        <path id="Path_304" data-name="Path 304"
              d="M527.659,321.111s117.53,46.568,292.813,27.386c196.96-21.554,319.585-128.076,666.234-155.635,360.35-28.209,719.552,108.6,719.552,108.6"
              transform="translate(-233.361 -109.853)" fill="rgba(0,0,0,0)" stroke="#b2d33c" stroke-miterlimit="10"
              stroke-width="0.75"/>
        <path id="Path_305" data-name="Path 305"
              d="M527.659,326.538s119.668,47.015,292.879,28.79c198.182-20.853,313.77-123.824,660.475-150.592,362.364-27.51,725.248,119.725,725.248,119.725"
              transform="translate(-233.361 -115.28)" fill="rgba(0,0,0,0)" stroke="#b2d33c" stroke-miterlimit="10"
              stroke-width="0.75"/>
        <path id="Path_306" data-name="Path 306"
              d="M527.659,331.926S649.466,379.4,820.6,362.12c199.406-20.137,307.954-119.572,654.716-145.547,364.378-26.811,730.943,130.849,730.943,130.849"
              transform="translate(-233.361 -120.668)" fill="rgba(0,0,0,0)" stroke="#b2d33c" stroke-miterlimit="10"
              stroke-width="0.75"/>
        <path id="Path_307" data-name="Path 307"
              d="M527.659,337.281s123.949,47.95,293.012,31.6c200.631-19.406,302.137-115.319,648.956-140.5,366.392-26.112,736.638,141.973,736.638,141.973"
              transform="translate(-233.361 -126.023)" fill="rgba(0,0,0,0)" stroke="#b2d33c" stroke-miterlimit="10"
              stroke-width="0.75"/>
        <path id="Path_308" data-name="Path 308"
              d="M527.659,342.608s126.092,48.437,293.078,33c201.858-18.66,296.322-111.067,643.2-135.459,368.406-25.413,742.334,153.1,742.334,153.1"
              transform="translate(-233.361 -131.35)" fill="rgba(0,0,0,0)" stroke="#b2d33c" stroke-miterlimit="10"
              stroke-width="0.75"/>
        <path id="Path_309" data-name="Path 309"
              d="M527.659,347.909s128.236,48.938,293.144,34.4C1023.89,364.417,1111.309,275.5,1458.24,251.9,1828.661,227.185,2206.27,416.12,2206.27,416.12"
              transform="translate(-233.361 -136.651)" fill="rgba(0,0,0,0)" stroke="#b2d33c" stroke-miterlimit="10"
              stroke-width="0.75"/>
        <path id="Path_310" data-name="Path 310"
              d="M527.659,353.191S658.04,402.642,820.87,389c204.316-17.118,284.689-102.562,631.678-125.371,372.435-24.014,753.725,175.345,753.725,175.345"
              transform="translate(-233.361 -141.933)" fill="rgba(0,0,0,0)" stroke="#b2d33c" stroke-miterlimit="10"
              stroke-width="0.75"/>
        <path id="Path_311" data-name="Path 311"
              d="M527.659,358.454s132.526,49.977,293.277,37.212c205.546-16.322,278.874-98.31,625.918-120.327,374.448-23.315,759.419,186.468,759.419,186.468"
              transform="translate(-233.361 -147.196)" fill="rgba(0,0,0,0)" stroke="#b2d33c" stroke-miterlimit="10"
              stroke-width="0.75"/>
        <path id="Path_312" data-name="Path 312"
              d="M527.659,363.7S662.332,414.218,821,402.318c206.778-15.508,273.058-94.058,620.159-115.283,376.462-22.616,765.115,197.592,765.115,197.592"
              transform="translate(-233.361 -152.444)" fill="rgba(0,0,0,0)" stroke="#b2d33c" stroke-miterlimit="10"
              stroke-width="0.75"/>
        <path id="Path_313" data-name="Path 313"
              d="M527.659,368.936S664.479,420,821.07,408.956c208.01-14.676,267.241-89.806,614.4-110.239,378.475-21.917,770.809,208.716,770.809,208.716"
              transform="translate(-233.361 -157.678)" fill="rgba(0,0,0,0)" stroke="#b2d33c" stroke-miterlimit="10"
              stroke-width="0.75"/>
        <path id="Path_314" data-name="Path 314"
              d="M527.659,374.157s138.967,51.631,293.476,41.423c209.244-13.823,261.426-85.553,608.641-105.194,380.489-21.218,776.5,219.84,776.5,219.84"
              transform="translate(-233.361 -162.899)" fill="rgba(0,0,0,0)" stroke="#b2d33c" stroke-miterlimit="10"
              stroke-width="0.75"/>
        <path id="Path_315" data-name="Path 315"
              d="M527.659,379.368S668.773,431.574,821.2,422.195c210.477-12.95,255.61-81.3,602.881-100.15,382.5-20.519,782.2,230.964,782.2,230.964"
              transform="translate(-233.361 -168.11)" fill="rgba(0,0,0,0)" stroke="#b2d33c" stroke-miterlimit="10"
              stroke-width="0.75"/>
        <path id="Path_316" data-name="Path 316"
              d="M527.659,384.569S670.934,437.6,821.268,428.8c211.73-11.717,249.794-77.05,597.122-95.106,384.519-19.82,787.9,242.087,787.9,242.087"
              transform="translate(-233.361 -173.311)" fill="rgba(0,0,0,0)" stroke="#b2d33c" stroke-miterlimit="10"
              stroke-width="0.75"/>
        <path id="Path_317" data-name="Path 317"
              d="M527.659,389.761S673.073,443.279,821.335,435.4c212.954-10.959,243.978-72.8,591.362-90.062,386.532-19.121,793.591,253.211,793.591,253.211"
              transform="translate(-233.361 -178.503)" fill="rgba(0,0,0,0)" stroke="#b2d33c" stroke-miterlimit="10"
              stroke-width="0.75"/>
        <path id="Path_318" data-name="Path 318"
              d="M527.659,394.946s147.554,54,293.742,47.038c214.178-10.2,238.163-68.545,585.6-85.017C1795.55,338.545,2206.29,621.3,2206.29,621.3"
              transform="translate(-233.361 -183.688)" fill="rgba(0,0,0,0)" stroke="#b2d33c" stroke-miterlimit="10"
              stroke-width="0.75"/>
        <path id="Path_319" data-name="Path 319"
              d="M1603.081,343.25s-165.589-122.922-482.567-105.175c-316.506,17.721-379.8,107.9-659.427,70.89S64.714,142.313.311,47.154"
              transform="translate(-0.311 -47.154)" fill="rgba(0,0,0,0)" stroke="#b2d33c" stroke-miterlimit="10"
              stroke-width="0.75"/>
        <path id="Path_320" data-name="Path 320"
              d="M1603.081,355.671s-168.5-121.152-484.749-101.426c-313.639,19.277-379.668,108.813-656.743,74.011C181.246,293.59,61.648,165.888.311,75.261"
              transform="translate(-0.311 -59.575)" fill="rgba(0,0,0,0)" stroke="#b2d33c" stroke-miterlimit="10"
              stroke-width="0.75"/>
        <path id="Path_321" data-name="Path 321"
              d="M1603.081,368.093s-171.4-119.382-486.93-97.676c-310.772,20.832-379.537,109.726-654.059,77.132C181.034,315.224,58.58,189.464.311,103.368"
              transform="translate(-0.311 -71.997)" fill="rgba(0,0,0,0)" stroke="#b2d33c" stroke-miterlimit="10"
              stroke-width="0.75"/>
        <path id="Path_322" data-name="Path 322"
              d="M1603.081,380.514S1428.768,262.9,1113.969,286.588c-307.9,22.388-379.326,109.923-651.374,80.252C180.9,336.117,55.514,213.039.311,131.475"
              transform="translate(-0.311 -84.418)" fill="rgba(0,0,0,0)" stroke="#b2d33c" stroke-miterlimit="10"
              stroke-width="0.75"/>
        <path id="Path_323" data-name="Path 323"
              d="M1603.081,392.935s-177.221-115.842-491.293-90.177C806.75,326.7,732.607,413.411,463.1,386.132,180.7,357.548,52.447,236.615.311,159.582"
              transform="translate(-0.311 -96.839)" fill="rgba(0,0,0,0)" stroke="#b2d33c" stroke-miterlimit="10"
              stroke-width="0.75"/>
        <path id="Path_324" data-name="Path 324"
              d="M1603.081,405.356s-180.129-114.072-493.475-86.427c-302.171,25.5-379.041,111.408-646.006,86.494C180.5,379,49.38,260.191.311,187.689"
              transform="translate(-0.311 -109.26)" fill="rgba(0,0,0,0)" stroke="#b2d33c" stroke-miterlimit="10"
              stroke-width="0.75"/>
        <path id="Path_325" data-name="Path 325"
              d="M1603.081,417.778S1420.108,306.153,1107.425,335.1C808.18,362.8,728.519,447.291,464.1,424.715,180.289,400.483,46.313,283.766.311,215.8"
              transform="translate(-0.311 -121.682)" fill="rgba(0,0,0,0)" stroke="#b2d33c" stroke-miterlimit="10"
              stroke-width="0.75"/>
        <path id="Path_326" data-name="Path 326"
              d="M1603.081,430.2s-185.87-109.788-497.838-78.928c-296.368,29.316-378.774,113-640.638,92.735C180.076,421.988,43.246,307.342.311,243.9"
              transform="translate(-0.311 -134.103)" fill="rgba(0,0,0,0)" stroke="#b2d33c" stroke-miterlimit="10"
              stroke-width="0.75"/>
        <path id="Path_327" data-name="Path 327"
              d="M1603.081,442.62s-188.767-107.965-500.019-75.178C809.57,398.357,724.414,481.278,465.108,463.3,179.859,443.519,40.18,330.918.311,272.01"
              transform="translate(-0.311 -146.524)" fill="rgba(0,0,0,0)" stroke="#b2d33c" stroke-miterlimit="10"
              stroke-width="0.75"/>
        <path id="Path_328" data-name="Path 328"
              d="M1603.081,455.042s-191.666-106.158-502.2-71.429c-290.616,32.5-378.523,114.7-635.269,98.977-285.973-17.512-428.5-128.1-465.3-182.473"
              transform="translate(-0.311 -158.946)" fill="rgba(0,0,0,0)" stroke="#b2d33c" stroke-miterlimit="10"
              stroke-width="0.75"/>
        <path id="Path_329" data-name="Path 329"
              d="M1603.081,467.463S1408.516,363.1,1098.7,399.783c-287.742,34.071-378.4,115.589-632.585,102.1C179.415,486.664,34.046,378.069.311,328.224"
              transform="translate(-0.311 -171.367)" fill="rgba(0,0,0,0)" stroke="#b2d33c" stroke-miterlimit="10"
              stroke-width="0.75"/>
        <path id="Path_330" data-name="Path 330"
              d="M1603.081,479.884s-197.467-102.587-506.564-63.93c-284.87,35.627-378.282,116.5-629.9,105.219C179.189,508.28,30.979,401.644.311,356.331"
              transform="translate(-0.311 -183.788)" fill="rgba(0,0,0,0)" stroke="#b2d33c" stroke-miterlimit="10"
              stroke-width="0.75"/>
        <path id="Path_331" data-name="Path 331"
              d="M1603.081,492.305s-200.37-100.826-508.745-60.18c-282,37.169-378.164,117.447-627.216,108.339C178.963,529.927,27.912,425.22.311,384.438"
              transform="translate(-0.311 -196.209)" fill="rgba(0,0,0,0)" stroke="#b2d33c" stroke-miterlimit="10"
              stroke-width="0.75"/>
        <path id="Path_332" data-name="Path 332"
              d="M1603.081,504.727s-203.275-99.08-510.927-56.431c-279.131,38.7-378.045,118.416-624.532,111.46C178.735,551.6,24.845,448.8.311,412.545"
              transform="translate(-0.311 -208.631)" fill="rgba(0,0,0,0)" stroke="#b2d33c" stroke-miterlimit="10"
              stroke-width="0.75"/>
        <path id="Path_333" data-name="Path 333"
              d="M1603.081,517.148S1396.9,419.8,1089.973,464.467C813.708,504.675,712.045,583.877,468.125,579.048,178.508,573.313,21.779,472.371.311,440.652"
              transform="translate(-0.311 -221.052)" fill="rgba(0,0,0,0)" stroke="#b2d33c" stroke-miterlimit="10"
              stroke-width="0.75"/>
        <path id="Path_334" data-name="Path 334"
              d="M1603.081,528.8s-209.095-95.64-515.29-48.932c-273.4,41.705-377.808,120.431-619.163,117.7C178.282,594.286,18.712,495.177.311,467.988"
              transform="translate(-0.311 -232.703)" fill="rgba(0,0,0,0)" stroke="#b2d33c" stroke-miterlimit="10"
              stroke-width="0.75"/>
        <path id="Path_335" data-name="Path 335"
              d="M1603.081,530.83s-212.01-93.945-517.471-45.182C815.069,528.836,707.922,607.125,469.131,606.47,178.058,605.672,15.645,508.362.311,485.7"
              transform="translate(-0.311 -234.734)" fill="rgba(0,0,0,0)" stroke="#b2d33c" stroke-miterlimit="10"
              stroke-width="0.75"/>
        <path id="Path_336" data-name="Path 336"
              d="M1603.081,532.634S1388.058,439.8,1083.428,491.2c-267.766,44.163-377.564,122.549-613.8,123.943C177.836,616.867,12.578,521.32.311,503.195"
              transform="translate(-0.311 -236.538)" fill="rgba(0,0,0,0)" stroke="#b2d33c" stroke-miterlimit="10"
              stroke-width="0.75"/>
        <path id="Path_337" data-name="Path 337"
              d="M1603.081,534.6s-217.931-91.06-521.834-37.683c-264.9,45.718-377.438,123.645-611.111,127.063C177.618,628.259,9.511,534.439.311,520.845"
              transform="translate(-0.311 -238.503)" fill="rgba(0,0,0,0)" stroke="#b2d33c" stroke-miterlimit="10"
              stroke-width="0.75"/>
        <path id="Path_338" data-name="Path 338"
              d="M1603.081,536.521s-220.839-89.29-524.016-33.934C817.033,549.861,701.757,627.354,470.639,632.772,177.4,639.646,6.444,547.516.311,538.453"
              transform="translate(-0.311 -240.425)" fill="rgba(0,0,0,0)" stroke="#b2d33c" stroke-miterlimit="10"
              stroke-width="0.75"/>
        <path id="Path_339" data-name="Path 339"
              d="M1603.081,538.4s-223.746-87.52-526.2-30.184c-259.165,48.83-377.166,126.17-605.742,133.305C177.207,651.359,3.378,560.549.311,556.018"
              transform="translate(-0.311 -242.304)" fill="rgba(0,0,0,0)" stroke="#b2d33c" stroke-miterlimit="10"
              stroke-width="0.75"/>
        <path id="Path_340" data-name="Path 340"
              d="M1603.081,540.236S1376.426,454.487,1074.7,513.8C818.4,564.187,697.668,640.885,471.644,650.228,176.994,662.407.311,573.54.311,573.54"
              transform="translate(-0.311 -244.14)" fill="rgba(0,0,0,0)" stroke="#b2d33c" stroke-miterlimit="10"
              stroke-width="0.75"/>


</svg>
