<svg xmlns="http://www.w3.org/2000/svg" width="69.861" height="62"><defs><clipPath id="clip-path"><path id="Rectangle_1514" data-name="Rectangle 1514" fill="none" stroke="#b2d33c" stroke-width="2" d="M0 0h69.861v62H0z"/></clipPath></defs><g id="Group_573" data-name="Group 573"><g id="Group_572" data-name="Group 572" clip-path="url(#clip-path)" fill="none" stroke="#b2d33c" stroke-width="2"><path id="Path_282" data-name="Path 282" d="M58.776 36.561l-6.152-4.82a3.254 3.254 0 00-4.448.32l-2.3 2.31a3.257 3.257 0 01-4.519.263l-3.452-2.844a3.249 3.249 0 00-4.433.18l-2.626 2.489a3.252 3.252 0 01-4.509.116l-3.145-2.725a3.244 3.244 0 00-4.426.042l-2.95 2.642a3.252 3.252 0 01-4.506-.028l-2.825-2.585a3.247 3.247 0 00-4.429-.095L.79 34.6" transform="translate(.36 14.118)" stroke-linejoin="round"/><path id="Path_283" data-name="Path 283" d="M65.135 41.634L61.68 38.79a3.248 3.248 0 00-4.433.18l-2.627 2.489a3.251 3.251 0 01-4.507.116l-3.145-2.725a3.244 3.244 0 00-4.426.042l-2.952 2.643a3.251 3.251 0 01-4.5-.028l-2.826-2.586a3.245 3.245 0 00-4.427-.095L24.564 41.6a3.253 3.253 0 01-4.51-.175L17.554 39a3.252 3.252 0 00-4.439-.234L7.18 43.561" transform="translate(3.27 17.306)" stroke-linejoin="round"/><path id="Path_284" data-name="Path 284" d="M2.466 34.01a4.832 4.832 0 01-1.466-4v-6.64h33.475L41.647 19h26.3a9.626 9.626 0 01-2.055 6C63 28.84 57.19 31.163 57.19 35.01" transform="translate(.455 8.653)" stroke-linejoin="round"/><path id="Path_285" data-name="Path 285" d="M25.742 27.465v-8.732h2.911v-5.822h-2.911V10H3.911v2.911H1v5.822h2.911v8.733" transform="translate(.455 4.554)" stroke-miterlimit="10"/><path id="Line_73" data-name="Line 73" transform="translate(9.219)" stroke-linejoin="round" d="M0 0v14.341"/><path id="Line_74" data-name="Line 74" transform="translate(14.341 7.171)" stroke-linejoin="round" d="M0 0v7.171"/><path id="Line_75" data-name="Line 75" transform="translate(10.244 20.487)" stroke-linejoin="round" d="M0 0h3.073"/><path id="Line_76" data-name="Line 76" transform="translate(17.414 20.487)" stroke-linejoin="round" d="M0 0h3.073"/><path id="Line_77" data-name="Line 77" transform="translate(41.999 34.828)" stroke-linejoin="round" d="M4.097 0H0"/></g></g></svg>