<svg id="Group_561" data-name="Group 561" xmlns="http://www.w3.org/2000/svg" width="72.69" height="68"><defs><clipPath id="clip-path"><path id="Rectangle_1507" data-name="Rectangle 1507" fill="none" stroke="#b2d33c" stroke-width="2" d="M0 0h72.69v68H0z"/></clipPath></defs><g id="Group_560" data-name="Group 560" clip-path="url(#clip-path)" fill="none" stroke="#b2d33c" stroke-linejoin="round" stroke-width="2"><path id="Path_239" data-name="Path 239" d="M35 40.18h0a3.044 3.044 0 003.045 3.045h3.045a3.044 3.044 0 003.045-3.045v-.851a3.045 3.045 0 00-2.083-2.888l-4.971-1.657A3.046 3.046 0 0135 31.9v-.851A3.044 3.044 0 0138.045 28h3.045a3.044 3.044 0 013.045 3.045" transform="translate(18.289 14.631)"/><path id="Line_50" data-name="Line 50" transform="translate(57.448 37.517)" d="M0 4.69V0"/><path id="Line_51" data-name="Line 51" transform="translate(57.448 57.448)" d="M0 0v4.69"/><path id="Path_240" data-name="Path 240" d="M42.7 16C40.673 26.837 29 33.693 29 44.928a13.7 13.7 0 1027.406 0C56.406 33.693 44.732 26.837 42.7 16z" transform="translate(15.154 8.361)"/><path id="Path_241" data-name="Path 241" d="M35.658 31.451V1H25v63.946" transform="translate(13.063 .523)"/><path id="Path_242" data-name="Path 242" d="M13.658 52.406V25H3v27.406" transform="translate(1.568 13.063)"/><path id="Path_243" data-name="Path 243" d="M24.658 59.721V11H14v48.721" transform="translate(7.315 5.748)"/><path id="Line_52" data-name="Line 52" transform="translate(0 65.655)" d="M42.207 0H0"/></g></svg>