<svg id="Group_563" data-name="Group 563" xmlns="http://www.w3.org/2000/svg" width="71.698" height="68"><defs><clipPath id="clip-path"><path id="Rectangle_1508" data-name="Rectangle 1508" fill="none" stroke="#b2d33c" stroke-width="2" d="M0 0h71.697v68H0z"/></clipPath></defs><g id="Group_562" data-name="Group 562" clip-path="url(#clip-path)" fill="none" stroke="#b2d33c" stroke-linecap="round" stroke-linejoin="round" stroke-width="2"><path id="Path_244" data-name="Path 244" d="M12.938 38.292s5.479 2.461 12.617-3.116c10.407-8.131 6.283-24.312-3.781-29.051 0 0 .638 4.322-5.522 8.7-4.966 3.533-13.541 7.914-8.689 20.823" transform="translate(-4.981 -4.981)"/><path id="Path_245" data-name="Path 245" d="M154.045 190.219h0a3.176 3.176 0 011.721-1.366l1.163-.382a3.176 3.176 0 001.721-1.366l2.3-3.777a3.176 3.176 0 011.309-1.2l2.157-1.063a3.176 3.176 0 001.747-2.449l.559-4.405a3.176 3.176 0 00-2.391-3.483l-.923-.227a3.178 3.178 0 01-1.47-.822l-4.462-4.4a3.894 3.894 0 00-3.949-.926 3.177 3.177 0 01-2.227-.092l-3.914-1.654a3.176 3.176 0 00-4.148 1.659l-1.439 3.31a3.176 3.176 0 00.282 3.045l3.363 4.973a3.167 3.167 0 00.4.482l.915.9a3.175 3.175 0 01.921 2.661l-.8 6.283a3.175 3.175 0 00.4 1.992l1.3 2.24a3.176 3.176 0 005.465.067z" transform="translate(-115.105 -132.042)"/><path id="Path_246" data-name="Path 246" d="M44.844 36.107a31.441 31.441 0 1018.467-14.254c-.683.2-1.365.413-2.034.656" transform="translate(-32.9 -16.796)"/><path id="Path_247" data-name="Path 247" d="M211.577 63.513l-5.643.017a2.676 2.676 0 00-2.444 1.6l-1.528 3.494a2.676 2.676 0 01-1.135 1.257h0a2.676 2.676 0 00-.343 4.429l2.078 1.643a2.676 2.676 0 002.4.473l2.656-.761a2.677 2.677 0 012.859.941l1.957 2.545a2.677 2.677 0 001.638 1l4.6.844a2.677 2.677 0 012.193 2.574l.093 4.266a2.676 2.676 0 00.753 1.8L226.884 95" transform="translate(-162.217 -51.653)"/></g></svg>