<svg id="Group_559" data-name="Group 559" xmlns="http://www.w3.org/2000/svg" width="83" height="59"><defs><clipPath id="clip-path"><path id="Rectangle_1506" data-name="Rectangle 1506" fill="none" stroke="#b2d33c" stroke-width="2" d="M0 0h83v59H0z"/></clipPath></defs><g id="Group_558" data-name="Group 558" clip-path="url(#clip-path)" fill="none" stroke="#b2d33c" stroke-miterlimit="10" stroke-width="2"><path id="Path_234" data-name="Path 234" d="M16.046 29a5.171 5.171 0 11-9.752 0" transform="translate(4.341 20.981)"/><path id="Path_235" data-name="Path 235" d="M22.046 29a5.171 5.171 0 11-9.752 0" transform="translate(8.682 20.981)"/><path id="Path_236" data-name="Path 236" d="M40.046 29a5.171 5.171 0 11-9.752 0" transform="translate(21.705 20.981)"/><path id="Path_237" data-name="Path 237" d="M46.046 29a5.171 5.171 0 11-9.752 0" transform="translate(26.046 20.981)"/><path id="Path_238" data-name="Path 238" d="M68.216 38.47c5.908 0 12.064-7.869 12.064-17.235S74.124 4 68.216 4H13.064C7.156 4 1 11.869 1 21.235S7.156 38.47 13.064 38.47z" transform="translate(.723 2.894)"/><path id="Line_40" data-name="Line 40" transform="translate(2 43)" d="M0 0v7"/><path id="Line_41" data-name="Line 41" transform="translate(2 47)" d="M5 0H0"/><rect id="Rectangle_1505" data-name="Rectangle 1505" width="69" height="9" rx="2" transform="translate(7 41)"/><path id="Line_42" data-name="Line 42" transform="translate(81 43)" d="M0 0v7"/><path id="Line_43" data-name="Line 43" transform="translate(76 47)" d="M0 0h5"/><path id="Line_44" data-name="Line 44" transform="translate(65)" d="M0 0v38"/><path id="Line_45" data-name="Line 45" transform="translate(53)" d="M0 38V0"/><path id="Line_46" data-name="Line 46" transform="translate(53 14)" d="M9 0H0"/><path id="Line_47" data-name="Line 47" transform="translate(53 22)" d="M9 0H0"/><path id="Line_48" data-name="Line 48" transform="translate(53 31)" d="M9 0H0"/><path id="Line_49" data-name="Line 49" transform="translate(19 2)" d="M0 0h10"/></g></svg>