<svg xmlns="http://www.w3.org/2000/svg" width="68" height="68"><defs><clipPath id="clip-path"><path id="Rectangle_1504" data-name="Rectangle 1504" fill="none" stroke="#b2d33c" stroke-width="2" d="M0 0h68v68H0z"/></clipPath></defs><g id="Group_557" data-name="Group 557" transform="translate(-.004 .756)"><g id="Group_556" data-name="Group 556" transform="translate(.004 -.756)" clip-path="url(#clip-path)" fill="none" stroke="#b2d33c" stroke-linecap="round" stroke-linejoin="round" stroke-width="2"><path id="Path_226" data-name="Path 226" d="M108.379 9.749a5.283 5.283 0 105.283-5.257 5.27 5.27 0 00-5.283 5.257z" transform="translate(-79.726 -2.6)"/><path id="Path_227" data-name="Path 227" d="M111.191 56.9a3.146 3.146 0 002.034-2.947V52.9c0-6.308-3.873-8.411-7.608-8.411h-1.691c-3.735 0-7.608 2.1-7.608 8.411v1.051a3.146 3.146 0 002.035 2.949 18.8 18.8 0 0012.838 0z" transform="translate(-70.835 -32.085)"/><path id="Path_228" data-name="Path 228" d="M16.06 165.257A5.283 5.283 0 1021.343 160a5.27 5.27 0 00-5.283 5.257z" transform="translate(-11.672 -117.233)"/><path id="Path_229" data-name="Path 229" d="M18.872 212.538a3.146 3.146 0 002.033-2.947v-1.18c0-6.308-3.873-8.411-7.608-8.411h-1.69C7.873 200 4 202.1 4 208.411v1.18a3.146 3.146 0 002.034 2.947 18.185 18.185 0 006.419 1.13 18.185 18.185 0 006.419-1.13z" transform="translate(-2.782 -146.719)"/><path id="Path_230" data-name="Path 230" d="M108.379 165.257a5.283 5.283 0 105.283-5.257 5.27 5.27 0 00-5.283 5.257z" transform="translate(-79.726 -117.233)"/><path id="Path_231" data-name="Path 231" d="M111.191 212.538a3.146 3.146 0 002.034-2.947v-1.18c0-6.308-3.873-8.411-7.608-8.411h-1.691c-3.735 0-7.608 2.1-7.608 8.411v1.18a3.146 3.146 0 002.034 2.947 18.8 18.8 0 0012.838 0z" transform="translate(-70.835 -146.719)"/><path id="Path_232" data-name="Path 232" d="M200.06 165.257a5.283 5.283 0 105.283-5.257 5.27 5.27 0 00-5.283 5.257z" transform="translate(-147.309 -117.233)"/><path id="Path_233" data-name="Path 233" d="M202.872 212.538a3.146 3.146 0 002.034-2.947v-1.18c0-6.308-3.873-8.411-7.608-8.411h-1.691c-3.735 0-7.608 2.1-7.608 8.411v1.18a3.146 3.146 0 002.034 2.947 18.8 18.8 0 0012.838 0z" transform="translate(-138.419 -146.719)"/><path id="Line_36" data-name="Line 36" transform="translate(34.523 29.292)" d="M0 0v10.462"/><path id="Line_37" data-name="Line 37" transform="translate(9.713 34.356)" d="M0 0h48.321"/><path id="Line_38" data-name="Line 38" transform="translate(9.415 34.523)" d="M0 0v5.231"/><path id="Line_39" data-name="Line 39" transform="translate(58.034 34.356)" d="M0 0v5.257"/></g></g></svg>