<svg id="Group_571" data-name="Group 571" xmlns="http://www.w3.org/2000/svg" width="68" height="68"><defs><clipPath id="clip-path"><path id="Rectangle_1513" data-name="Rectangle 1513" fill="none" stroke="#b2d33c" stroke-width="2" d="M0 0h68v68H0z"/></clipPath></defs><g id="Group_570" data-name="Group 570" clip-path="url(#clip-path)" fill="none" stroke="#b2d33c" stroke-linecap="round" stroke-linejoin="round" stroke-width="2"><path id="Path_271" data-name="Path 271" d="M24.08 37.34A5.367 5.367 0 1029.447 32a5.354 5.354 0 00-5.367 5.34z" transform="translate(-17.65 -23.455)"/><path id="Path_272" data-name="Path 272" d="M155.9 37.807a7.008 7.008 0 00-7.187 6.816 7.531 7.531 0 001.874 4.883c.964 1.292 1.67 1.425 2.064 3.357" transform="translate(-108.998 -27.711)"/><path id="Path_273" data-name="Path 273" d="M175.629 37.807a7.008 7.008 0 017.187 6.816 7.532 7.532 0 01-1.873 4.883c-.965 1.292-1.813 1.425-2.208 3.357" transform="translate(-128.732 -27.711)"/><path id="Path_274" data-name="Path 274" d="M170.1 94.193h-6.251" transform="translate(-120.098 -69.042)"/><path id="Path_275" data-name="Path 275" d="M175.629 98.948h1.671l1.439-2.377v-2.378" transform="translate(-128.732 -69.041)"/><path id="Path_276" data-name="Path 276" d="M163.46 94.193v2.377l1.582 2.378h1.6" transform="translate(-119.812 -69.042)"/><path id="Line_65" data-name="Line 65" transform="translate(46.901 5.34)" d="M0 0v1.068"/><path id="Line_66" data-name="Line 66" transform="translate(54.491 8.782)" d="M.759 0L0 .755"/><path id="Line_67" data-name="Line 67" transform="translate(57.635 17.09)" d="M1.073 0H0"/><path id="Line_68" data-name="Line 68" transform="translate(54.491 24.642)" d="M.759.755L0 0"/><path id="Line_69" data-name="Line 69" transform="translate(38.551 24.642)" d="M0 .755L.759 0"/><path id="Line_70" data-name="Line 70" transform="translate(35.093 17.09)" d="M0 0h1.073"/><path id="Line_71" data-name="Line 71" transform="translate(38.551 8.782)" d="M0 0l.759.755"/><path id="Path_277" data-name="Path 277" d="M23.028 111.52V78.409l14.115-1.873A2.277 2.277 0 0036.84 72H17.661C12.918 72 8 74.136 8 80.545v4.838a8.928 8.928 0 002.634 6.328l1.659 1.651v18.158" transform="translate(-5.864 -52.774)"/><path id="Line_72" data-name="Line 72" transform="translate(11.797 41.656)" d="M0 0v17.09"/><path id="Path_278" data-name="Path 278" d="M104 21.09V4h38.452v35.247H104v-7.476" transform="translate(-76.229 -2.932)"/><circle id="Ellipse_967" data-name="Ellipse 967" cx="5.34" cy="5.34" r="5.34" transform="translate(29.907 43.227)"/><path id="Path_279" data-name="Path 279" d="M100 214.2v-3.77c0-6.409 3.915-8.545 7.69-8.545h1.71c3.775 0 7.69 2.136 7.69 8.545v3.77" transform="translate(-73.298 -147.975)"/><path id="Path_280" data-name="Path 280" d="M195.741 167.223a5.367 5.367 0 105.367-5.34 5.354 5.354 0 00-5.367 5.34z" transform="translate(-143.473 -118.656)"/><path id="Path_281" data-name="Path 281" d="M183.681 214.2v-3.77c0-6.409 3.934-8.545 7.728-8.545h1.718c3.794 0 7.729 2.136 7.729 8.545v3.77" transform="translate(-134.634 -147.975)"/></g></svg>