<svg xmlns="http://www.w3.org/2000/svg" width="72.414" height="68"><defs><clipPath id="clip-path"><path id="Rectangle_1509" data-name="Rectangle 1509" fill="none" stroke="#b2d33c" stroke-width="2" d="M0 0h72.414v68H0z"/></clipPath></defs><g id="Group_565" data-name="Group 565"><g id="Group_564" data-name="Group 564" clip-path="url(#clip-path)" fill="none" stroke="#b2d33c" stroke-width="2"><path id="Path_248" data-name="Path 248" d="M3 52.212V28.074h49.785v24.138" transform="translate(1.526 14.28)" stroke-miterlimit="10"/><path id="Line_53" data-name="Line 53" transform="translate(0 66.491)" stroke-miterlimit="10" d="M0 0h72.414"/><path id="Path_249" data-name="Path 249" d="M26.03 34.178c1.641-7 2.972-13.958 2.972-18.1h18.1c0 10.811 9.052 40.733 9.052 40.733v1.509" transform="translate(13.24 8.176)" stroke-linejoin="round"/><path id="Path_250" data-name="Path 250" d="M53.8 19.323c0-5.138-.661-9.429-6.035-12.069-4.838-2.378-11.692 3.269-16.595-.928S19.922.3 14.578 4.7C10.985 7.661 4.718 3.7 1 .788" transform="translate(.508 .401)" stroke-miterlimit="10"/><path id="Path_251" data-name="Path 251" d="M16.052 37.738V9.074H7v28.664" transform="translate(3.56 4.616)" stroke-miterlimit="10"/><path id="Path_252" data-name="Path 252" d="M22.052 32.651V19.074H13" transform="translate(6.612 9.702)" stroke-miterlimit="10"/><path id="Line_54" data-name="Line 54" transform="translate(10.56 58.948)" stroke-miterlimit="10" d="M0 0h6.035"/><path id="Line_55" data-name="Line 55" transform="translate(19.612 58.948)" stroke-miterlimit="10" d="M0 0h6.035"/><path id="Line_56" data-name="Line 56" transform="translate(28.664 58.948)" stroke-miterlimit="10" d="M0 0h6.035"/><path id="Path_253" data-name="Path 253" d="M26 47.125v-9.051h7.543v9.052" transform="translate(13.224 19.366)" stroke-miterlimit="10"/></g></g></svg>