<svg xmlns="http://www.w3.org/2000/svg" width="61.087" height="63.023"><g id="Group_545" data-name="Group 545" transform="translate(-1275.183 -1995.247)" fill="none" stroke="#fff" stroke-miterlimit="10" stroke-width="3"><rect id="Rectangle_1498" data-name="Rectangle 1498" width="58.087" height="60.023" rx="1.615" transform="translate(1276.683 1996.747)"/><path id="Line_15" data-name="Line 15" transform="translate(1292.173 2047.089)" d="M0 0h3.872"/><path id="Line_16" data-name="Line 16" transform="translate(1299.918 2047.089)" d="M0 0h3.872"/><path id="Line_17" data-name="Line 17" transform="translate(1307.663 2047.089)" d="M0 0h3.872"/><path id="Line_18" data-name="Line 18" transform="translate(1315.408 2047.089)" d="M0 0h3.872"/><path id="Path_191" data-name="Path 191" d="M8.8 20.2A13.319 13.319 0 0122.314 6.8 13.807 13.807 0 0135.9 20.533a13.317 13.317 0 01-13.513 13.4A13.808 13.808 0 018.8 20.2z" transform="translate(1283.359 2001.548)"/><path id="Line_19" data-name="Line 19" transform="translate(1309.599 2006.428)" stroke-linecap="round" d="M11.617 0L0 11.617"/><path id="Line_20" data-name="Line 20" transform="translate(1290.237 2025.79)" stroke-linecap="round" d="M11.617 0L0 11.617"/><path id="Line_21" data-name="Line 21" transform="translate(1309.599 2025.79)" stroke-linecap="round" d="M11.617 11.617L0 0"/><path id="Line_22" data-name="Line 22" transform="translate(1290.237 2006.428)" stroke-linecap="round" d="M11.617 11.617L0 0"/></g></svg>