<svg xmlns="http://www.w3.org/2000/svg" width="360.476" height="66.543"><g id="Group_521" data-name="Group 521" transform="translate(.29 .238)" opacity=".13" fill="none" stroke="#b2d33c" stroke-miterlimit="10" stroke-width=".75"><path id="Path_105" data-name="Path 105" d="M527.659 125.532s18.727 6.611 53.345 2.648c34.391-3.937 65.743-23.8 128.924-28.789s124.022 4.634 124.022 4.634" transform="translate(-473.959 -93.681)"/><path id="Path_106" data-name="Path 106" d="M527.659 138.307s19.117 6.684 53.357 2.859c34.614-3.823 64.682-23.157 127.873-28.029 63.548-4.886 125.062 6.311 125.062 6.311" transform="translate(-473.959 -106.456)"/><path id="Path_107" data-name="Path 107" d="M527.659 150.663s19.507 6.757 53.369 3.071c34.837-3.709 63.621-22.516 126.822-27.268 63.916-4.78 126.1 7.988 126.1 7.988" transform="translate(-473.959 -118.812)"/><path id="Path_108" data-name="Path 108" d="M527.659 162.707s19.889 6.773 53.381 3.282c35.052-3.653 62.56-21.875 125.772-26.508 64.283-4.675 127.14 9.665 127.14 9.665" transform="translate(-473.959 -130.855)"/><path id="Path_109" data-name="Path 109" d="M527.659 174.511s20.278 6.832 53.393 3.494c35.273-3.555 61.5-21.234 124.72-25.747 64.651-4.569 128.179 11.343 128.179 11.343" transform="translate(-473.959 -142.659)"/><path id="Path_110" data-name="Path 110" d="M527.659 186.128s20.667 6.893 53.405 3.706c35.495-3.455 60.437-20.593 123.669-24.987 65.018-4.464 129.219 13.02 129.219 13.02" transform="translate(-473.959 -154.276)"/><path id="Path_111" data-name="Path 111" d="M527.659 197.6s21.056 6.956 53.418 3.917c35.717-3.354 59.376-19.951 122.619-24.226 65.385-4.359 130.258 14.7 130.258 14.7" transform="translate(-473.959 -165.744)"/><path id="Path_112" data-name="Path 112" d="M527.659 208.944s21.446 7.021 53.43 4.129c35.939-3.25 58.315-19.31 121.568-23.465 65.753-4.253 131.3 16.374 131.3 16.374" transform="translate(-473.959 -177.092)"/><path id="Path_113" data-name="Path 113" d="M527.659 220.192s21.836 7.089 53.442 4.341c36.162-3.144 57.254-18.669 120.517-22.7 66.121-4.148 132.336 18.051 132.336 18.051" transform="translate(-473.959 -188.34)"/><path id="Path_114" data-name="Path 114" d="M527.659 231.358s22.226 7.158 53.454 4.552c36.386-3.036 56.192-18.028 119.466-21.944 66.488-4.042 133.375 19.728 133.375 19.728" transform="translate(-473.959 -199.506)"/><path id="Path_115" data-name="Path 115" d="M527.659 242.455s22.617 7.229 53.466 4.764c36.609-2.926 55.131-17.387 118.415-21.184 66.856-3.937 134.414 21.405 134.414 21.405" transform="translate(-473.959 -210.603)"/><path id="Path_116" data-name="Path 116" d="M527.659 253.494s23.008 7.3 53.478 4.976c36.833-2.813 54.07-16.746 117.364-20.423 67.223-3.832 135.454 23.083 135.454 23.083" transform="translate(-473.959 -221.642)"/><path id="Path_117" data-name="Path 117" d="M527.659 264.481a158.045 158.045 0 0053.49 5.187c37.057-2.7 53.009-16.1 116.313-19.663 67.591-3.726 136.493 24.76 136.493 24.76" transform="translate(-473.959 -232.63)"/><path id="Path_118" data-name="Path 118" d="M527.659 275.427a160.836 160.836 0 0053.5 5.4c37.281-2.581 51.947-15.464 115.262-18.9 67.958-3.621 137.532 26.437 137.532 26.437" transform="translate(-473.959 -243.575)"/><path id="Path_119" data-name="Path 119" d="M527.659 286.335a163.722 163.722 0 0053.514 5.611c37.506-2.461 50.886-14.822 114.211-18.142 68.326-3.515 138.571 28.114 138.571 28.114" transform="translate(-473.959 -254.483)"/><path id="Path_120" data-name="Path 120" d="M527.659 297.21a166.712 166.712 0 0053.526 5.822c37.731-2.338 49.825-14.181 113.16-17.381 68.693-3.41 139.611 29.791 139.611 29.791" transform="translate(-473.959 -265.358)"/><path id="Path_121" data-name="Path 121" d="M527.659 308.057a169.807 169.807 0 0053.539 6.034c37.956-2.213 48.764-13.54 112.11-16.621 69.06-3.3 140.65 31.468 140.65 31.468" transform="translate(-473.959 -276.205)"/><path id="Path_122" data-name="Path 122" d="M527.659 318.878s25.357 7.784 53.551 6.245c38.181-2.084 47.7-12.9 111.059-15.86 69.428-3.2 141.689 33.146 141.689 33.146" transform="translate(-473.959 -287.026)"/><path id="Path_123" data-name="Path 123" d="M527.659 329.677s25.749 7.871 53.563 6.457c38.406-1.952 46.641-12.258 110.008-15.1 69.8-3.094 142.728 34.823 142.728 34.823" transform="translate(-473.959 -297.825)"/><path id="Path_124" data-name="Path 124" d="M527.659 340.455s26.143 8 53.575 6.669c38.634-1.767 45.58-11.617 108.957-14.339 70.163-2.988 143.767 36.5 143.767 36.5" transform="translate(-473.959 -308.604)"/><path id="Path_125" data-name="Path 125" d="M527.659 351.216s26.534 8.069 53.587 6.88c38.858-1.652 44.519-10.976 107.906-13.579 70.53-2.883 144.807 38.177 144.807 38.177" transform="translate(-473.959 -319.364)"/><path id="Path_126" data-name="Path 126" d="M527.659 361.961s26.924 8.142 53.6 7.092c39.081-1.538 43.458-10.335 106.855-12.818 70.9-2.778 145.846 39.854 145.846 39.854" transform="translate(-473.959 -330.109)"/><path id="Path_127" data-name="Path 127" d="M292.769 91.8s-30.216-18.536-88.055-15.86c-57.753 2.672-69.3 16.268-120.326 10.688S12.063 61.5.311 47.154" transform="translate(-.311 -47.154)"/><path id="Path_128" data-name="Path 128" d="M292.769 117.539s-30.746-18.266-88.452-15.292c-57.23 2.906-69.278 16.406-119.836 11.159C33.326 108.179 11.5 88.925.311 75.261" transform="translate(-.311 -72.896)"/><path id="Path_129" data-name="Path 129" d="M292.769 143.281s-31.276-18-88.85-14.727c-56.707 3.146-69.255 16.546-119.347 11.629-51.285-4.873-73.629-23.834-84.261-36.815" transform="translate(-.311 -98.638)"/><path id="Path_130" data-name="Path 130" d="M292.769 169.023s-31.807-17.733-89.248-14.161c-56.183 3.375-69.216 16.573-118.856 12.1-51.4-4.632-74.28-23.189-84.353-35.486" transform="translate(-.311 -124.38)"/><path id="Path_131" data-name="Path 131" d="M292.769 194.765s-32.337-17.466-89.646-13.6c-55.66 3.61-69.189 16.683-118.367 12.57C33.227 189.43 9.824 171.2.311 159.582" transform="translate(-.311 -150.122)"/><path id="Path_132" data-name="Path 132" d="M292.769 220.507s-32.868-17.2-90.044-13.031c-55.137 3.844-69.164 16.8-117.877 13.041C33.19 216.534 9.265 198.62.311 187.689" transform="translate(-.311 -175.864)"/><path id="Path_133" data-name="Path 133" d="M292.769 246.249s-33.387-16.83-90.442-12.465c-54.6 4.177-69.139 16.915-117.387 13.511C33.152 243.642 8.705 226.044.311 215.8" transform="translate(-.311 -201.606)"/><path id="Path_134" data-name="Path 134" d="M292.769 271.991s-33.916-16.553-90.84-11.9c-54.078 4.42-69.115 17.037-116.9 13.982C33.113 270.753 8.145 253.468.311 243.9" transform="translate(-.311 -227.348)"/><path id="Path_135" data-name="Path 135" d="M292.769 297.733s-34.445-16.278-91.239-11.333c-53.553 4.661-69.092 17.163-116.407 14.452-52.05-2.983-77.537-19.96-84.812-28.842" transform="translate(-.311 -253.09)"/><path id="Path_136" data-name="Path 136" d="M292.769 323.475s-34.969-16.005-91.637-10.769c-53.032 4.9-69.069 17.294-115.918 14.923-52.182-2.64-78.188-19.313-84.9-27.512" transform="translate(-.311 -278.832)"/><path id="Path_137" data-name="Path 137" d="M292.769 349.217s-35.5-15.735-92.035-10.2c-52.5 5.137-69.047 17.428-115.428 15.394-52.314-2.294-78.839-18.667-85-26.183" transform="translate(-.311 -304.574)"/><path id="Path_138" data-name="Path 138" d="M292.769 374.959s-36.032-15.467-92.433-9.639c-51.98 5.372-69.025 17.566-114.938 15.864-52.447-1.943-79.491-18.021-85.087-24.853" transform="translate(-.311 -330.316)"/><path id="Path_139" data-name="Path 139" d="M292.769 400.7s-36.561-15.2-92.831-9.073c-51.456 5.6-69 17.708-114.448 16.334-52.58-1.587-80.143-17.374-85.179-23.523" transform="translate(-.311 -356.058)"/><path id="Path_140" data-name="Path 140" d="M292.769 426.443s-37.092-14.938-93.229-8.508c-50.933 5.834-68.982 17.854-113.958 16.8-52.713-1.229-80.794-16.73-85.27-22.2" transform="translate(-.311 -381.8)"/><path id="Path_141" data-name="Path 141" d="M292.769 452.186s-37.622-14.678-93.627-7.943c-50.41 6.062-68.96 18-113.469 17.276-52.846-.865-81.445-16.085-85.362-20.867" transform="translate(-.311 -407.543)"/><path id="Path_142" data-name="Path 142" d="M292.769 476.332s-38.154-14.42-94.025-7.378c-49.888 6.288-68.944 18.158-112.979 17.746-52.979-.5-82.1-15.438-85.454-19.537" transform="translate(-.311 -431.689)"/><path id="Path_143" data-name="Path 143" d="M292.769 480.54s-38.685-14.164-94.423-6.812c-49.366 6.512-68.917 18.315-112.489 18.217-53.112-.12-82.748-14.792-85.546-18.208" transform="translate(-.311 -435.897)"/><path id="Path_144" data-name="Path 144" d="M292.769 484.279s-39.235-14-94.821-6.247c-48.859 6.659-68.894 18.477-112 18.687-53.244.26-83.4-14.146-85.637-16.879" transform="translate(-.311 -439.636)"/><path id="Path_145" data-name="Path 145" d="M292.769 488.35s-39.769-13.729-95.22-5.681c-48.336 6.893-68.871 18.642-111.509 19.158-53.376.645-84.05-13.5-85.729-15.55" transform="translate(-.311 -443.707)"/><path id="Path_146" data-name="Path 146" d="M292.769 492.333s-40.3-13.462-95.617-5.116c-47.813 7.128-68.847 18.811-111.02 19.628-53.507 1.037-84.702-12.854-85.821-14.22" transform="translate(-.311 -447.691)"/><path id="Path_147" data-name="Path 147" d="M292.769 496.228s-40.827-13.2-96.015-4.551c-47.29 7.362-68.822 19.023-110.53 20.1C32.589 513.259.871 499.568.311 498.884" transform="translate(-.311 -451.585)"/><path id="Path_148" data-name="Path 148" d="M292.769 500.034s-41.358-12.929-96.413-3.985c-46.767 7.6-68.8 19.161-110.04 20.569-53.765 1.836-86-11.562-86-11.562" transform="translate(-.311 -455.391)"/></g></svg>