<svg xmlns="http://www.w3.org/2000/svg" width="27" height="27"><g id="inst-ic" transform="translate(7039 608)"><path id="Rectangle_1600" data-name="Rectangle 1600" transform="translate(-7039 -608)" fill="none" d="M0 0h27v27H0z"/><g id="Group_661" data-name="Group 661" transform="translate(2 -25)" fill="#fff"><path id="Union_10" data-name="Union 10" d="M15 21H6a6.006 6.006 0 01-6-6V6a6.007 6.007 0 016-6h9a6.007 6.007 0 016 6v9a6.007 6.007 0 01-6 6zM10.5 3a7.5 7.5 0 107.5 7.5A7.509 7.509 0 0010.5 3z" transform="translate(-7038 -580)"/><circle id="Ellipse_972" data-name="Ellipse 972" cx="5.359" cy="5.359" r="5.359" transform="translate(-7032.865 -574.981)"/></g></g></svg>