<svg xmlns="http://www.w3.org/2000/svg" width="27" height="27"><g id="lin-ic" transform="translate(6920 583)"><g id="Group_662" data-name="Group 662" transform="translate(-2.5 2.5)" fill="#fff"><path id="Path_342" data-name="Path 342" d="M763.991 1380.375a2.411 2.411 0 01.952.914 2.569 2.569 0 01.345 1.329 2.639 2.639 0 01-.338 1.342 2.36 2.36 0 01-.952.914 3.1 3.1 0 01-2.775 0 2.413 2.413 0 01-.953-.914 2.764 2.764 0 010-2.671 2.414 2.414 0 01.953-.914 3.076 3.076 0 012.768 0zm-3.781 21.671v-15.457h4.861v15.457z" transform="translate(-7674.926 -1963.046)"/><path id="Path_343" data-name="Path 343" d="M779.8 1387.311q1.2 1.352 1.2 4.457v9.075h-4.862v-9.088a2.618 2.618 0 00-.222-1.2 1.123 1.123 0 00-.635-.561 3.438 3.438 0 00-1.087-.142 1.994 1.994 0 00-1.756.811v10.182H767.6v-14.612h4.538l.162 1.689a4.908 4.908 0 011.8-1.459 5.413 5.413 0 012.35-.5 4.267 4.267 0 013.35 1.348z" transform="translate(-7674.007 -1961.843)"/></g><path id="Rectangle_1605" data-name="Rectangle 1605" transform="translate(-6920 -583)" fill="none" d="M0 0h27v27H0z"/></g></svg>