<svg xmlns="http://www.w3.org/2000/svg" width="73.44" height="70"><g id="Group_550" data-name="Group 550" transform="translate(-448.72 -2369.719)" fill="none" stroke="#b2d33c" stroke-linecap="round" stroke-linejoin="round" stroke-width="2"><path id="Path_217" data-name="Path 217" d="M48.034 17.36v48.807a2.586 2.586 0 01-2.553 2.553H3.273A2.573 2.573 0 01.72 66.167V3.275A2.56 2.56 0 013.273.72h28.121" transform="translate(449 2370)"/><path id="Path_218" data-name="Path 218" d="M31.49 17.36H17.4a2.56 2.56 0 01-2.553-2.553V.72z" transform="translate(465.544 2370)"/><path id="Path_219" data-name="Path 219" d="M26.683 4.651H35.8v47.3c0 9.43-9.115 9.432-9.115 0z" transform="translate(479.399 2374.602)"/><path id="Path_220" data-name="Path 220" d="M41.759 25.751l.033-17.669H26.657" transform="translate(479.368 2378.62)"/><path id="Line_28" data-name="Line 28" transform="translate(510.486 2433.623)" d="M0 5.095V0"/><path id="Line_29" data-name="Line 29" transform="translate(459.926 2384.398)" d="M0 0h13.451"/><path id="Line_30" data-name="Line 30" transform="translate(459.926 2397.128)" d="M0 0h26.903"/><path id="Line_31" data-name="Line 31" transform="translate(459.926 2404.559)" d="M0 0h26.903"/><path id="Line_32" data-name="Line 32" transform="translate(459.926 2411.99)" d="M0 0h26.903"/><path id="Line_33" data-name="Line 33" transform="translate(459.926 2419.421)" d="M0 0h13.451"/></g></svg>