<svg xmlns="http://www.w3.org/2000/svg" width="84.057" height="70"><g id="Group_546" data-name="Group 546" transform="translate(-1116.98 -184)" fill="none" stroke="#b2d33c" stroke-linecap="round" stroke-linejoin="round" stroke-width="2"><path id="Path_192" data-name="Path 192" d="M56.722 140.633l-21.157 32.562-6.35-9.157-20.08 27.9a.713.713 0 00.58 1.129H90.3a.713.713 0 00.6-1.107z" transform="translate(1109 59.937)"/><path id="Line_23" data-name="Line 23" transform="translate(1165.684 185.092)" d="M0 14.761V0"/><path id="Path_193" data-name="Path 193" d="M415.875 9h13.542l-4.928 4.932 4.928 4.864h-13.542" transform="translate(749.821 176)"/><path id="Path_194" data-name="Path 194" d="M306.422 310.463c3.256 0 3.256 3.076 6.512 3.076s3.256-3.076 6.512-3.076 3.256 3.076 6.513 3.076 3.256-3.076 6.513-3.076" transform="translate(846.374 -90.084)"/><path id="Line_24" data-name="Line 24" transform="translate(1139.747 230.722)" d="M6.355 0L0 9.772"/><path id="Line_25" data-name="Line 25" transform="translate(1177.933 230.047)" d="M9.902 14.607L0 0"/><path id="Line_26" data-name="Line 26" transform="translate(1129.97 235.951)" d="M6.558 0L0 9.759"/></g></svg>