<svg xmlns="http://www.w3.org/2000/svg" width="72.773" height="70"><g id="Group_551" data-name="Group 551" transform="translate(-418.72 -2610.72)"><path id="Path_221" data-name="Path 221" d="M433.688 2611.72h42.837v33.037c0 10.443-9.651 19.008-21.417 19.008h0c-11.768 0-21.419-8.552-21.419-19.008zm21.418 52.072v14.923m-19.555 1h39.11m-41.473-62.664H419.72c2.918 7.879 7.631 13 13.468 15.957m43.837-15.957h13.468c-2.918 7.879-7.631 13-13.468 15.957m-21.919-12.766l3.994 9.458 9.909.636-7.762 6.723 2.453 9.628-8.792-5.309-8.391 5.309 2.329-10-7.646-6.346 10.233-.874z" fill="none" stroke="#b2d33c" stroke-linecap="round" stroke-linejoin="round" stroke-width="2"/></g></svg>