<svg id="Group_638" data-name="Group 638" xmlns="http://www.w3.org/2000/svg" xmlns:xlink="http://www.w3.org/1999/xlink" width="34.372" height="40.289" viewBox="0 0 34.372 40.289">
  <defs>
    <clipPath id="clip-path">
      <rect id="Rectangle_1573" data-name="Rectangle 1573" width="34.372" height="40.289" fill="#008fc3"/>
    </clipPath>
  </defs>
  <g id="Group_637" data-name="Group 637" clip-path="url(#clip-path)">
    <path id="Path_296" data-name="Path 296" d="M25.055,40.289A10.087,10.087,0,0,0,29.6,39.134,9.276,9.276,0,0,0,34,33.968c.78-2.487.344-5.243-1.3-8.19L21.859,6.31a12.175,12.175,0,0,0-6.879-5.8,10.9,10.9,0,0,0-8.681.91l-.218.122A11.851,11.851,0,0,0,1.5,17.648l9.724,17.465,2.405-1.34L3.9,16.308A9.1,9.1,0,0,1,7.421,3.95l.218-.122a8.166,8.166,0,0,1,6.505-.691A9.437,9.437,0,0,1,19.453,7.65l10.84,19.468c1.252,2.249,1.617,4.267,1.084,6a6.554,6.554,0,0,1-3.011,3.555c-3.721,1.873-6.98.721-9.188-3.244L8.288,13.867A4.068,4.068,0,0,1,9.863,8.335l.218-.122c2.076-1.156,4,.11,4.986,1.879l9.774,17.553,2.405-1.34L17.473,8.752C15.55,5.3,11.878,4.061,8.74,5.808l-.218.122a6.82,6.82,0,0,0-2.64,9.277l10.891,19.56c2.01,3.609,4.983,5.522,8.282,5.522" transform="translate(0.001 0)" fill="#008fc3"/>
  </g>
</svg>
