<svg id="sos" xmlns="http://www.w3.org/2000/svg" width="50" height="42"><path id="Path_97" data-name="Path 97" d="M150.668 94.19a7.1 7.1 0 002.2.767c.105.025.183.043.228.052l.063.014c2.254.519 2.591 1.084 2.591 1.374a.917.917 0 01-.38.809 2.277 2.277 0 01-1.3.3 2.7 2.7 0 01-1.57-.38 1.368 1.368 0 01-.456-.564 1.318 1.318 0 00-1.188-.788h-.089a1.3 1.3 0 00-1.187 1.822 3.428 3.428 0 00.974 1.287 6.052 6.052 0 006.619.018 3.418 3.418 0 001.21-2.785 3.233 3.233 0 00-.355-1.555 2.67 2.67 0 00-1.071-1.061 5.389 5.389 0 00-.89-.389 24.962 24.962 0 00-1.674-.472l-.767-.182c-.741-.172-1.623-.491-1.623-1.032a.878.878 0 01.364-.763 2.012 2.012 0 011.182-.292 2.256 2.256 0 011.376.357 1.167 1.167 0 01.371.472 1.3 1.3 0 002.28.155 1.3 1.3 0 00.071-1.257 3.2 3.2 0 00-.83-1.073 4.637 4.637 0 00-3.074-.945 5.085 5.085 0 00-3.2.886 3.122 3.122 0 00-1.149 2.592 3.57 3.57 0 00.321 1.559 2.613 2.613 0 00.949 1.079" transform="translate(-129.935 -76.522)" fill="red"/><path id="Path_98" data-name="Path 98" d="M229.606 88.184a5.161 5.161 0 00-3.97 1.6 6.984 6.984 0 000 8.575 5.717 5.717 0 007.947 0 6.951 6.951 0 000-8.572 5.178 5.178 0 00-3.977-1.606m2.013 8.483a2.417 2.417 0 01-2.013.887 2.381 2.381 0 01-1.991-.886 4.993 4.993 0 010-5.186 2.385 2.385 0 011.991-.883 2.417 2.417 0 012.013.887 4.945 4.945 0 010 5.181" transform="translate(-194.961 -76.618)" fill="red"/><path id="Path_99" data-name="Path 99" d="M323.43 94.556a2.672 2.672 0 00-1.071-1.061 5.4 5.4 0 00-.89-.389 24.962 24.962 0 00-1.674-.472l-.767-.182c-.741-.172-1.623-.491-1.623-1.032a.878.878 0 01.364-.763 2.012 2.012 0 011.182-.292 2.256 2.256 0 011.377.357 1.17 1.17 0 01.371.472 1.295 1.295 0 002.28.155 1.3 1.3 0 00.072-1.257 3.2 3.2 0 00-.83-1.073 4.637 4.637 0 00-3.074-.945 5.085 5.085 0 00-3.2.886 3.122 3.122 0 00-1.147 2.59 3.569 3.569 0 00.321 1.559 2.614 2.614 0 00.949 1.079 7.094 7.094 0 002.2.766c.105.025.183.043.228.052l.063.014c2.254.519 2.591 1.084 2.591 1.374a.917.917 0 01-.38.809 2.277 2.277 0 01-1.3.3 2.7 2.7 0 01-1.57-.379 1.372 1.372 0 01-.456-.564 1.318 1.318 0 00-1.187-.788h-.089a1.3 1.3 0 00-1.186 1.822 3.428 3.428 0 00.974 1.287 6.052 6.052 0 006.619.018 3.418 3.418 0 001.21-2.785 3.232 3.232 0 00-.355-1.555" transform="translate(-273.785 -76.521)" fill="red"/><path id="Path_100" data-name="Path 100" d="M36.9 31.669l-6.7-3.68a3.889 3.889 0 00-5 1.105l-.856 1.824a34.876 34.876 0 01-8.464-7.478c-2.528-2.968-4.526-5.347-5.679-9.166l2.623-.781a3.766 3.766 0 001.546-4.8L11.227 1.8A3.145 3.145 0 006.833.4C3.613 2.188.76 3.492.111 7.011-.687 15.627 2.9 23.089 8.529 29.7S21.157 41.271 29.922 42c3.811.094 5.85-2.745 8.035-5.923a3.044 3.044 0 00-1.057-4.408" fill="red"/></svg>