<svg xmlns="http://www.w3.org/2000/svg" width="812" height="288"><g id="Group_664" data-name="Group 664" transform="translate(-140 -5633)"><path id="Rectangle_1524" data-name="Rectangle 1524" transform="translate(140 5633)" fill="#b2d33c" d="M0 0h812v48H0z"/><path id="Rectangle_1525" data-name="Rectangle 1525" transform="translate(140 5681)" fill="#fcffef" d="M0 0h812v48H0z"/><path id="Rectangle_1528" data-name="Rectangle 1528" transform="translate(140 5777)" fill="#fcffef" d="M0 0h812v48H0z"/><path id="Rectangle_1529" data-name="Rectangle 1529" transform="translate(140 5873)" fill="#fcffef" d="M0 0h812v48H0z"/><path id="Rectangle_1526" data-name="Rectangle 1526" transform="translate(140 5729)" fill="#d5f2fc" d="M0 0h812v48H0z"/><path id="Rectangle_1527" data-name="Rectangle 1527" transform="translate(140 5825)" fill="#d5f2fc" d="M0 0h812v48H0z"/><text id="פחם" transform="translate(198 5645)" fill="#fff" font-size="20" font-family="Rubik-Bold, Rubik" font-weight="700"><tspan x="1.34" y="19">פחם</tspan></text><text id="_100_" data-name="100%" transform="translate(192 5693)" fill="#042844" font-size="20" font-family="Rubik-Regular, Rubik"><tspan x="0" y="19">100%</tspan></text><text id="_100_2" data-name="100%" transform="translate(192 5789)" fill="#042844" font-size="20" font-family="Rubik-Regular, Rubik"><tspan x="0" y="19">100%</tspan></text><text id="_100_3" data-name="100%" transform="translate(192 5741)" fill="#042844" font-size="20" font-family="Rubik-Regular, Rubik"><tspan x="0" y="19">100%</tspan></text><text id="_100_4" data-name="100%" transform="translate(192 5837)" fill="#042844" font-size="20" font-family="Rubik-Regular, Rubik"><tspan x="0" y="19">100%</tspan></text><text id="הגז_הטבעי" data-name="הגז הטבעי" transform="translate(510 5645)" fill="#fff" font-size="20" font-family="Rubik-Bold, Rubik" font-weight="700"><tspan x=".94" y="19">הגז הטבעי</tspan></text><text id="_0_" data-name="0%" transform="translate(536 5693)" fill="#042844" font-size="20" font-family="Rubik-Regular, Rubik"><tspan x="6.04" y="19">0%</tspan></text><text id="_20_" data-name="20%" transform="translate(536 5789)" fill="#042844" font-size="20" font-family="Rubik-Regular, Rubik"><tspan x=".17" y="19">20%</tspan></text><text id="_20_2" data-name="20%" transform="translate(536 5741)" fill="#042844" font-size="20" font-family="Rubik-Regular, Rubik"><tspan x=".17" y="19">20%</tspan></text><text id="כ-60_" data-name="כ-60%" transform="translate(524 5837)" fill="#042844" font-size="20" font-family="Rubik-Regular, Rubik"><tspan x="1.98" y="19">60%</tspan><tspan y="19">כ-</tspan></text><g id="Group_590" data-name="Group 590" transform="translate(28.5 -3)" fill="#042844" font-size="20" font-family="Rubik-Regular, Rubik"><text id="_EIA_Natural_Gas_Issues_and_Trends_1998" data-name="EIA — Natural Gas Issues and Trends ‏1998" transform="translate(297.5 5888)"><tspan x=".26" y="19">EIA — Natural Gas Issues and Trends </tspan><tspan y="19">‏</tspan><tspan y="19">1998</tspan></text><text id=":מקור" transform="translate(744 5907)"><tspan x="-45.82" y="0">:</tspan><tspan y="0">מקור</tspan></text></g><text id="מזהם_אוויר_סוג_אנרגיה" data-name="מזהם אוויר / סוג אנרגיה" transform="translate(687 5645)" fill="#fff" font-size="20" font-family="Rubik-Bold, Rubik" font-weight="700"><tspan x="2.31" y="19">מזהם אוויר / סוג אנרגיה</tspan></text><text id="SO2" transform="translate(771 5693)" fill="#042844" font-size="20" font-family="Rubik-Regular, Rubik"><tspan x="1.14" y="19">SO2</tspan></text><text id="CO" transform="translate(771 5789)" fill="#042844" font-size="20" font-family="Rubik-Regular, Rubik"><tspan x="6.57" y="19">CO</tspan></text><text id="NOX" transform="translate(771 5741)" fill="#042844" font-size="20" font-family="Rubik-Regular, Rubik"><tspan x=".18" y="19">NOX</tspan></text><text id="CO2" transform="translate(771 5837)" fill="#042844" font-size="20" font-family="Rubik-Regular, Rubik"><tspan x=".7" y="19">CO2</tspan></text><text id="סולר_מזוט" data-name="סולר / מזוט" transform="translate(323 5645)" fill="#fff" font-size="20" font-family="Rubik-Bold, Rubik" font-weight="700"><tspan x="1.22" y="19">סולר / מזוט</tspan></text><text id="כ-40_" data-name="כ-40%" transform="translate(342 5693)" fill="#042844" font-size="20" font-family="Rubik-Regular, Rubik"><tspan x="2.3" y="19">40%</tspan><tspan y="19">כ-</tspan></text><text id="כ-20_" data-name="כ-20%" transform="translate(342 5789)" fill="#042844" font-size="20" font-family="Rubik-Regular, Rubik"><tspan x="2.64" y="19">20%</tspan><tspan y="19">כ-</tspan></text><text id="_100_5" data-name="100%" transform="translate(342 5741)" fill="#042844" font-size="20" font-family="Rubik-Regular, Rubik"><tspan x="7.91" y="19">100%</tspan></text><text id="_80_" data-name="80%" transform="translate(342 5837)" fill="#042844" font-size="20" font-family="Rubik-Regular, Rubik"><tspan x="12.18" y="19">80%</tspan></text></g></svg>