<svg xmlns="http://www.w3.org/2000/svg" width="460.743" height="102.6" viewBox="0 0 460.743 102.6">
  <g id="Group_766" data-name="Group 766" transform="translate(0.311 0.21)" opacity="0.52">
    <path id="Path_39" data-name="Path 39" d="M527.659,140.621s23.94,10.228,68.2,4.1c43.964-6.092,84.046-36.819,164.815-44.541s158.549,7.17,158.549,7.17" transform="translate(-459.009 -91.342)" fill="none" stroke="#d5f2fc" stroke-miterlimit="10" stroke-width="0.75"/>
    <path id="Path_40" data-name="Path 40" d="M527.659,152.754s24.439,10.341,68.211,4.424c44.25-5.915,82.689-35.827,163.472-43.365,81.239-7.559,159.877,9.765,159.877,9.765" transform="translate(-459.009 -103.475)" fill="none" stroke="#d5f2fc" stroke-miterlimit="10" stroke-width="0.75"/>
    <path id="Path_41" data-name="Path 41" d="M527.659,164.489s24.938,10.454,68.226,4.751c44.536-5.738,81.332-34.836,162.128-42.188,81.709-7.4,161.206,12.359,161.206,12.359" transform="translate(-459.009 -115.21)" fill="none" stroke="#d5f2fc" stroke-miterlimit="10" stroke-width="0.75"/>
    <path id="Path_42" data-name="Path 42" d="M527.659,175.927s25.426,10.479,68.242,5.078c44.81-5.652,79.976-33.844,160.785-41.011,82.179-7.233,162.534,14.954,162.534,14.954" transform="translate(-459.009 -126.647)" fill="none" stroke="#d5f2fc" stroke-miterlimit="10" stroke-width="0.75"/>
    <path id="Path_43" data-name="Path 43" d="M527.659,187.138s25.923,10.57,68.257,5.406c45.092-5.5,78.619-32.852,159.441-39.835,82.649-7.07,163.863,17.549,163.863,17.549" transform="translate(-459.009 -137.858)" fill="none" stroke="#d5f2fc" stroke-miterlimit="10" stroke-width="0.75"/>
    <path id="Path_44" data-name="Path 44" d="M527.659,198.171s26.42,10.664,68.273,5.733c45.376-5.346,77.262-31.86,158.1-38.658,83.119-6.906,165.191,20.144,165.191,20.144" transform="translate(-459.009 -148.892)" fill="none" stroke="#d5f2fc" stroke-miterlimit="10" stroke-width="0.75"/>
    <path id="Path_45" data-name="Path 45" d="M527.659,209.063s26.918,10.762,68.288,6.061c45.66-5.189,75.905-30.868,156.754-37.481,83.588-6.743,166.52,22.738,166.52,22.738" transform="translate(-459.009 -159.783)" fill="none" stroke="#d5f2fc" stroke-miterlimit="10" stroke-width="0.75"/>
    <path id="Path_46" data-name="Path 46" d="M527.659,219.84s27.416,10.863,68.3,6.388c45.944-5.028,74.549-29.876,155.411-36.3,84.058-6.58,167.848,25.333,167.848,25.333" transform="translate(-459.009 -170.56)" fill="none" stroke="#d5f2fc" stroke-miterlimit="10" stroke-width="0.75"/>
    <path id="Path_47" data-name="Path 47" d="M527.659,230.523s27.915,10.967,68.319,6.716c46.229-4.864,73.192-28.884,154.067-35.128,84.528-6.417,169.177,27.928,169.177,27.928" transform="translate(-459.009 -181.243)" fill="none" stroke="#d5f2fc" stroke-miterlimit="10" stroke-width="0.75"/>
    <path id="Path_48" data-name="Path 48" d="M527.659,241.127s28.414,11.075,68.335,7.043c46.515-4.7,71.836-27.892,152.724-33.951,85-6.254,170.505,30.523,170.505,30.523" transform="translate(-459.009 -191.848)" fill="none" stroke="#d5f2fc" stroke-miterlimit="10" stroke-width="0.75"/>
    <path id="Path_49" data-name="Path 49" d="M527.659,251.667s28.913,11.185,68.35,7.371c46.8-4.527,70.479-26.9,151.38-32.775,85.467-6.091,171.834,33.118,171.834,33.118" transform="translate(-459.009 -202.387)" fill="none" stroke="#d5f2fc" stroke-miterlimit="10" stroke-width="0.75"/>
    <path id="Path_50" data-name="Path 50" d="M527.659,262.15s29.413,11.3,68.366,7.7c47.087-4.353,69.122-25.908,150.037-31.6,85.937-5.928,173.162,35.713,173.162,35.713" transform="translate(-459.009 -212.871)" fill="none" stroke="#d5f2fc" stroke-miterlimit="10" stroke-width="0.75"/>
    <path id="Path_51" data-name="Path 51" d="M527.659,272.586S557.572,284,596.04,280.611c47.373-4.175,67.766-24.916,148.693-30.422C831.14,244.425,919.224,288.5,919.224,288.5" transform="translate(-459.009 -223.306)" fill="none" stroke="#d5f2fc" stroke-miterlimit="10" stroke-width="0.75"/>
    <path id="Path_52" data-name="Path 52" d="M527.659,282.981s30.414,11.535,68.4,8.353c47.66-3.993,66.409-23.924,147.35-29.245,86.877-5.6,175.82,40.9,175.82,40.9" transform="translate(-459.009 -233.701)" fill="none" stroke="#d5f2fc" stroke-miterlimit="10" stroke-width="0.75"/>
    <path id="Path_53" data-name="Path 53" d="M527.659,293.341a175.414,175.414,0,0,0,68.412,8.68c47.947-3.808,65.052-22.933,146.006-28.068,87.347-5.439,177.148,43.5,177.148,43.5" transform="translate(-459.009 -244.061)" fill="none" stroke="#d5f2fc" stroke-miterlimit="10" stroke-width="0.75"/>
    <path id="Path_54" data-name="Path 54" d="M527.659,303.669s31.415,11.784,68.427,9.008c48.235-3.618,63.7-21.941,144.663-26.892,87.816-5.276,178.476,46.092,178.476,46.092" transform="translate(-459.009 -254.39)" fill="none" stroke="#d5f2fc" stroke-miterlimit="10" stroke-width="0.75"/>
    <path id="Path_55" data-name="Path 55" d="M527.659,313.971s31.916,11.912,68.443,9.335c48.522-3.423,62.339-20.949,143.32-25.715,88.286-5.113,179.8,48.687,179.8,48.687" transform="translate(-459.009 -264.691)" fill="none" stroke="#d5f2fc" stroke-miterlimit="10" stroke-width="0.75"/>
    <path id="Path_56" data-name="Path 56" d="M527.659,324.248s32.416,12.044,68.458,9.663c48.81-3.225,60.982-19.957,141.976-24.538,88.756-4.949,181.133,51.281,181.133,51.281" transform="translate(-459.009 -274.968)" fill="none" stroke="#d5f2fc" stroke-miterlimit="10" stroke-width="0.75"/>
    <path id="Path_57" data-name="Path 57" d="M527.659,334.5s32.917,12.178,68.474,9.99c49.1-3.021,59.626-18.965,140.633-23.362,89.226-4.786,182.462,53.876,182.462,53.876" transform="translate(-459.009 -285.224)" fill="none" stroke="#d5f2fc" stroke-miterlimit="10" stroke-width="0.75"/>
    <path id="Path_58" data-name="Path 58" d="M527.659,344.741s33.421,12.371,68.49,10.318c49.39-2.733,58.269-17.973,139.289-22.185,89.7-4.623,183.791,56.471,183.791,56.471" transform="translate(-459.009 -295.461)" fill="none" stroke="#d5f2fc" stroke-miterlimit="10" stroke-width="0.75"/>
    <path id="Path_59" data-name="Path 59" d="M527.659,354.96s33.92,12.484,68.505,10.645c49.675-2.556,56.912-16.981,137.945-21.008,90.165-4.46,185.119,59.066,185.119,59.066" transform="translate(-459.009 -305.681)" fill="none" stroke="#d5f2fc" stroke-miterlimit="10" stroke-width="0.75"/>
    <path id="Path_60" data-name="Path 60" d="M527.659,365.165s34.419,12.6,68.52,10.973c49.961-2.38,55.556-15.989,136.6-19.832,90.635-4.3,186.447,61.661,186.447,61.661" transform="translate(-459.009 -315.885)" fill="none" stroke="#d5f2fc" stroke-miterlimit="10" stroke-width="0.75"/>
    <path id="Path_61" data-name="Path 61" d="M374.185,116.224S335.558,87.55,261.618,91.69c-73.831,4.134-88.595,25.169-153.823,16.536S15.334,69.351.311,47.154" transform="translate(-0.311 -47.154)" fill="none" stroke="#d5f2fc" stroke-miterlimit="10" stroke-width="0.75"/>
    <path id="Path_62" data-name="Path 62" d="M374.185,140.672s-39.3-28.261-113.076-23.659c-73.162,4.5-88.564,25.382-153.2,17.264C42.517,126.19,14.619,96.4.311,75.261" transform="translate(-0.311 -71.602)" fill="none" stroke="#d5f2fc" stroke-miterlimit="10" stroke-width="0.75"/>
    <path id="Path_63" data-name="Path 63" d="M374.185,165.12S334.2,137.272,260.6,142.335c-72.493,4.859-88.534,25.6-152.571,17.992C42.468,152.787,13.9,123.451.311,103.368" transform="translate(-0.311 -96.05)" fill="none" stroke="#d5f2fc" stroke-miterlimit="10" stroke-width="0.75"/>
    <path id="Path_64" data-name="Path 64" d="M374.185,189.568s-40.661-27.435-114.094-21.91c-71.824,5.222-88.484,25.642-151.944,18.72C42.437,179.211,13.188,150.5.311,131.475" transform="translate(-0.311 -120.498)" fill="none" stroke="#d5f2fc" stroke-miterlimit="10" stroke-width="0.75"/>
    <path id="Path_65" data-name="Path 65" d="M374.185,214.016s-41.34-27.022-114.6-21.035c-71.155,5.585-88.45,25.812-151.318,19.448C42.39,205.761,12.473,177.551.311,159.582" transform="translate(-0.311 -144.946)" fill="none" stroke="#d5f2fc" stroke-miterlimit="10" stroke-width="0.75"/>
    <path id="Path_66" data-name="Path 66" d="M374.185,238.464S332.167,211.854,259.073,218.3c-70.487,5.948-88.418,25.988-150.692,20.176C42.343,232.316,11.757,204.6.311,187.689" transform="translate(-0.311 -169.394)" fill="none" stroke="#d5f2fc" stroke-miterlimit="10" stroke-width="0.75"/>
    <path id="Path_67" data-name="Path 67" d="M374.185,262.912s-42.682-26.038-115.62-19.286c-69.8,6.462-88.386,26.17-150.066,20.9C42.294,258.877,11.042,231.651.311,215.8" transform="translate(-0.311 -193.842)" fill="none" stroke="#d5f2fc" stroke-miterlimit="10" stroke-width="0.75"/>
    <path id="Path_68" data-name="Path 68" d="M374.185,287.36s-43.357-25.61-116.129-18.411c-69.133,6.838-88.356,26.359-149.44,21.632C42.244,285.444,10.326,258.7.311,243.9" transform="translate(-0.311 -218.29)" fill="none" stroke="#d5f2fc" stroke-miterlimit="10" stroke-width="0.75"/>
    <path id="Path_69" data-name="Path 69" d="M374.185,311.808s-44.033-25.185-116.638-17.537c-68.462,7.212-88.326,26.554-148.814,22.36C42.194,312.017,9.611,285.751.311,272.01" transform="translate(-0.311 -242.738)" fill="none" stroke="#d5f2fc" stroke-miterlimit="10" stroke-width="0.75"/>
    <path id="Path_70" data-name="Path 70" d="M374.185,336.256s-44.709-24.763-117.147-16.662c-67.791,7.581-88.3,26.755-148.188,23.088C42.142,338.6,8.9,312.8.311,300.117" transform="translate(-0.311 -267.186)" fill="none" stroke="#d5f2fc" stroke-miterlimit="10" stroke-width="0.75"/>
    <path id="Path_71" data-name="Path 71" d="M374.185,360.7S328.8,336.359,256.529,344.916c-67.121,7.948-88.269,26.963-147.561,23.816C42.09,365.183,8.18,339.851.311,328.224" transform="translate(-0.311 -291.634)" fill="none" stroke="#d5f2fc" stroke-miterlimit="10" stroke-width="0.75"/>
    <path id="Path_72" data-name="Path 72" d="M374.185,385.152s-46.063-23.93-118.165-14.913c-66.451,8.311-88.241,27.177-146.935,24.544C42.037,391.776,7.465,366.9.311,356.331" transform="translate(-0.311 -316.082)" fill="none" stroke="#d5f2fc" stroke-miterlimit="10" stroke-width="0.75"/>
    <path id="Path_73" data-name="Path 73" d="M374.185,409.6s-46.74-23.519-118.674-14.038c-65.781,8.67-88.213,27.4-146.309,25.272C41.985,418.376,6.749,393.951.311,384.438" transform="translate(-0.311 -340.53)" fill="none" stroke="#d5f2fc" stroke-miterlimit="10" stroke-width="0.75"/>
    <path id="Path_74" data-name="Path 74" d="M374.185,434.048S326.768,410.936,255,420.885c-65.112,9.026-88.186,27.622-145.683,26C41.932,444.983,6.034,421,.311,412.545" transform="translate(-0.311 -364.978)" fill="none" stroke="#d5f2fc" stroke-miterlimit="10" stroke-width="0.75"/>
    <path id="Path_75" data-name="Path 75" d="M374.185,458.5s-48.1-22.709-119.691-12.289c-64.444,9.379-88.158,27.855-145.057,26.728C41.879,471.6,5.319,448.051.311,440.652" transform="translate(-0.311 -389.426)" fill="none" stroke="#d5f2fc" stroke-miterlimit="10" stroke-width="0.75"/>
    <path id="Path_76" data-name="Path 76" d="M374.185,481.429s-48.775-22.31-120.2-11.414c-63.776,9.729-88.13,28.093-144.431,27.456C41.826,496.7,4.6,473.586.311,467.243" transform="translate(-0.311 -412.359)" fill="none" stroke="#d5f2fc" stroke-miterlimit="10" stroke-width="0.75"/>
    <path id="Path_77" data-name="Path 77" d="M374.185,485.425s-49.455-21.914-120.709-10.539c-63.108,10.074-88.1,28.337-143.8,28.184C41.774,502.883,3.888,480.184.311,474.9" transform="translate(-0.311 -416.355)" fill="none" stroke="#d5f2fc" stroke-miterlimit="10" stroke-width="0.75"/>
    <path id="Path_78" data-name="Path 78" d="M374.185,488.976s-50.158-21.654-121.218-9.665c-62.461,10.3-88.073,28.587-143.178,28.912-68.067.4-106.616-21.886-109.478-26.114" transform="translate(-0.311 -419.907)" fill="none" stroke="#d5f2fc" stroke-miterlimit="10" stroke-width="0.75"/>
    <path id="Path_79" data-name="Path 79" d="M374.185,492.843s-50.836-21.241-121.727-8.79c-61.792,10.665-88.044,28.842-142.552,29.64-68.235,1-107.449-20.887-109.595-24.058" transform="translate(-0.311 -423.773)" fill="none" stroke="#d5f2fc" stroke-miterlimit="10" stroke-width="0.75"/>
    <path id="Path_80" data-name="Path 80" d="M374.185,496.626S322.671,475.8,251.949,488.71c-61.124,11.028-88.014,29.1-141.926,30.368-68.4,1.6-108.281-19.887-109.712-22" transform="translate(-0.311 -427.556)" fill="none" stroke="#d5f2fc" stroke-miterlimit="10" stroke-width="0.75"/>
    <path id="Path_81" data-name="Path 81" d="M374.185,500.325s-52.193-20.416-122.745-7.041c-60.455,11.39-87.981,29.431-141.3,31.1C41.575,526.674,1.026,505.491.311,504.434" transform="translate(-0.311 -431.255)" fill="none" stroke="#d5f2fc" stroke-miterlimit="10" stroke-width="0.75"/>
    <path id="Path_82" data-name="Path 82" d="M374.185,503.939s-52.871-20-123.254-6.166c-59.786,11.753-87.95,29.645-140.674,31.824C41.525,532.438.311,511.708.311,511.708" transform="translate(-0.311 -434.869)" fill="none" stroke="#d5f2fc" stroke-miterlimit="10" stroke-width="0.75"/>
  </g>
</svg>
