<svg id="Group_569" data-name="Group 569" xmlns="http://www.w3.org/2000/svg" xmlns:xlink="http://www.w3.org/1999/xlink" width="63.879" height="68" viewBox="0 0 63.879 68">
  <defs>
    <clipPath id="clip-path">
      <rect id="Rectangle_1512" data-name="Rectangle 1512" width="63.879" height="68" fill="none" stroke="#b2d33c" stroke-width="2"/>
    </clipPath>
  </defs>
  <g id="Group_568" data-name="Group 568" clip-path="url(#clip-path)">
    <path id="Path_262" data-name="Path 262" d="M11,44.507l1.871,4.518,3.493-1.447a10.757,10.757,0,0,0,2.511,2.508l-1.448,3.495,4.518,1.873,1.448-3.5a10.745,10.745,0,0,0,3.549,0l1.447,3.493,4.519-1.871-1.447-3.493a10.751,10.751,0,0,0,2.507-2.511l3.5,1.448,1.871-4.518-3.5-1.448a10.745,10.745,0,0,0,0-3.549l3.493-1.447-1.873-4.519-3.492,1.447a10.778,10.778,0,0,0-2.511-2.507l1.448-3.5-4.519-1.871-1.447,3.5a10.715,10.715,0,0,0-3.55,0l-1.447-3.493-4.518,1.871,1.447,3.493a10.751,10.751,0,0,0-2.507,2.511l-3.5-1.448L11,38.064l3.5,1.448a10.744,10.744,0,0,0,0,3.549Z" transform="translate(4.677 11.531)" fill="none" stroke="#b2d33c" stroke-linejoin="round" stroke-width="2"/>
    <path id="Path_263" data-name="Path 263" d="M17.969,40.295a4.751,4.751,0,1,1,6.207,2.571A4.751,4.751,0,0,1,17.969,40.295Z" transform="translate(7.486 14.34)" fill="none" stroke="#b2d33c" stroke-linejoin="round" stroke-width="2"/>
    <path id="Path_264" data-name="Path 264" d="M50.528,15H46.252v3.339a9.516,9.516,0,0,0-3.147,1.3l-3.368-3.366L34.7,21.311l3.368,3.368a9.494,9.494,0,0,0-1.3,3.148H32v7.126h4.276a15.16,15.16,0,0,0,1.79,3.147L34.7,41.468l5.038,5.04,3.368-3.368a9.486,9.486,0,0,0,3.147,1.3V47.78h4.276" transform="translate(13.607 6.378)" fill="none" stroke="#b2d33c" stroke-linejoin="round" stroke-width="2"/>
    <path id="Path_265" data-name="Path 265" d="M46.488,32.92a4.988,4.988,0,1,1,0-9.976" transform="translate(17.646 9.756)" fill="none" stroke="#b2d33c" stroke-linejoin="round" stroke-width="2"/>
    <path id="Path_266" data-name="Path 266" d="M21,24.7,26.7,19h4.276v8.551" transform="translate(8.929 8.079)" fill="none" stroke="#b2d33c" stroke-miterlimit="10" stroke-width="2"/>
    <path id="Path_267" data-name="Path 267" d="M3,18.252C3,10.381,5.138,4,14.4,4h1.425" transform="translate(1.276 1.701)" fill="none" stroke="#b2d33c" stroke-linejoin="round" stroke-width="2"/>
    <path id="Path_268" data-name="Path 268" d="M11,9.126A7.128,7.128,0,0,1,24.582,6.1" transform="translate(4.677 0.85)" fill="none" stroke="#b2d33c" stroke-linejoin="round" stroke-width="2"/>
    <path id="Path_269" data-name="Path 269" d="M7,19.528c0-2.362,3.828-4.276,8.551-4.276H36.929a5.7,5.7,0,0,0,5.7-5.7A8.229,8.229,0,0,0,34.079,1a8.551,8.551,0,0,0-8.551,8.551" transform="translate(2.976 0.425)" fill="none" stroke="#b2d33c" stroke-linejoin="round" stroke-width="2"/>
    <path id="Path_270" data-name="Path 270" d="M26.654,28.827V20.276H22.378l-5.7,5.7H12.4L10.976,16H3.85L1,38.8v2.85" transform="translate(0.425 6.803)" fill="none" stroke="#b2d33c" stroke-linejoin="round" stroke-width="2"/>
    <line id="Line_64" data-name="Line 64" x1="2.061" y1="7.212" transform="translate(12.364 32.97)" fill="none" stroke="#b2d33c" stroke-linejoin="round" stroke-width="2"/>
  </g>
</svg>
