<svg xmlns="http://www.w3.org/2000/svg" xmlns:xlink="http://www.w3.org/1999/xlink" width="72.414" height="68" viewBox="0 0 72.414 68">
  <defs>
    <clipPath id="clip-path">
      <rect id="Rectangle_1509" data-name="Rectangle 1509" width="72.414" height="68" fill="none" stroke="#b2d33c" stroke-width="2"/>
    </clipPath>
  </defs>
  <g id="Group_565" data-name="Group 565" transform="translate(0 0)">
    <g id="Group_564" data-name="Group 564" transform="translate(0 0)" clip-path="url(#clip-path)">
      <path id="Path_248" data-name="Path 248" d="M3,52.212V28.074H52.785V52.212" transform="translate(1.526 14.28)" fill="none" stroke="#b2d33c" stroke-miterlimit="10" stroke-width="2"/>
      <line id="Line_53" data-name="Line 53" x2="72.414" transform="translate(0 66.491)" fill="none" stroke="#b2d33c" stroke-miterlimit="10" stroke-width="2"/>
      <path id="Path_249" data-name="Path 249" d="M26.03,34.178c1.641-7,2.972-13.958,2.972-18.1h18.1c0,10.811,9.052,40.733,9.052,40.733v1.509" transform="translate(13.24 8.176)" fill="none" stroke="#b2d33c" stroke-linejoin="round" stroke-width="2"/>
      <path id="Path_250" data-name="Path 250" d="M53.8,19.323c0-5.138-.661-9.429-6.035-12.069-4.838-2.378-11.692,3.269-16.595-.928S19.922.3,14.578,4.7C10.985,7.661,4.718,3.7,1,.788" transform="translate(0.508 0.401)" fill="none" stroke="#b2d33c" stroke-miterlimit="10" stroke-width="2"/>
      <path id="Path_251" data-name="Path 251" d="M16.052,37.738V9.074H7V37.738" transform="translate(3.56 4.616)" fill="none" stroke="#b2d33c" stroke-miterlimit="10" stroke-width="2"/>
      <path id="Path_252" data-name="Path 252" d="M22.052,32.651V19.074H13" transform="translate(6.612 9.702)" fill="none" stroke="#b2d33c" stroke-miterlimit="10" stroke-width="2"/>
      <line id="Line_54" data-name="Line 54" x2="6.035" transform="translate(10.56 58.948)" fill="none" stroke="#b2d33c" stroke-miterlimit="10" stroke-width="2"/>
      <line id="Line_55" data-name="Line 55" x2="6.035" transform="translate(19.612 58.948)" fill="none" stroke="#b2d33c" stroke-miterlimit="10" stroke-width="2"/>
      <line id="Line_56" data-name="Line 56" x2="6.035" transform="translate(28.664 58.948)" fill="none" stroke="#b2d33c" stroke-miterlimit="10" stroke-width="2"/>
      <path id="Path_253" data-name="Path 253" d="M26,47.125V38.074h7.543v9.052" transform="translate(13.224 19.366)" fill="none" stroke="#b2d33c" stroke-miterlimit="10" stroke-width="2"/>
    </g>
  </g>
</svg>
