<svg id="Group_561" data-name="Group 561" xmlns="http://www.w3.org/2000/svg" xmlns:xlink="http://www.w3.org/1999/xlink" width="72.69" height="68" viewBox="0 0 72.69 68">
  <defs>
    <clipPath id="clip-path">
      <rect id="Rectangle_1507" data-name="Rectangle 1507" width="72.69" height="68" fill="none" stroke="#b2d33c" stroke-width="2"/>
    </clipPath>
  </defs>
  <g id="Group_560" data-name="Group 560" clip-path="url(#clip-path)">
    <path id="Path_239" data-name="Path 239" d="M35,40.18h0a3.044,3.044,0,0,0,3.045,3.045H41.09a3.044,3.044,0,0,0,3.045-3.045v-.851a3.045,3.045,0,0,0-2.083-2.888l-4.971-1.657A3.046,3.046,0,0,1,35,31.9v-.851A3.044,3.044,0,0,1,38.045,28H41.09a3.044,3.044,0,0,1,3.045,3.045" transform="translate(18.289 14.631)" fill="none" stroke="#b2d33c" stroke-linejoin="round" stroke-width="2"/>
    <line id="Line_50" data-name="Line 50" y1="4.69" transform="translate(57.448 37.517)" fill="none" stroke="#b2d33c" stroke-linejoin="round" stroke-width="2"/>
    <line id="Line_51" data-name="Line 51" y2="4.69" transform="translate(57.448 57.448)" fill="none" stroke="#b2d33c" stroke-linejoin="round" stroke-width="2"/>
    <path id="Path_240" data-name="Path 240" d="M42.7,16C40.673,26.837,29,33.693,29,44.928a13.7,13.7,0,1,0,27.406,0C56.406,33.693,44.732,26.837,42.7,16Z" transform="translate(15.154 8.361)" fill="none" stroke="#b2d33c" stroke-linejoin="round" stroke-width="2"/>
    <path id="Path_241" data-name="Path 241" d="M35.658,31.451V1H25V64.946" transform="translate(13.063 0.523)" fill="none" stroke="#b2d33c" stroke-linejoin="round" stroke-width="2"/>
    <path id="Path_242" data-name="Path 242" d="M13.658,52.406V25H3V52.406" transform="translate(1.568 13.063)" fill="none" stroke="#b2d33c" stroke-linejoin="round" stroke-width="2"/>
    <path id="Path_243" data-name="Path 243" d="M24.658,59.721V11H14V59.721" transform="translate(7.315 5.748)" fill="none" stroke="#b2d33c" stroke-linejoin="round" stroke-width="2"/>
    <line id="Line_52" data-name="Line 52" x1="42.207" transform="translate(0 65.655)" fill="none" stroke="#b2d33c" stroke-linejoin="round" stroke-width="2"/>
  </g>
</svg>
