<svg xmlns="http://www.w3.org/2000/svg" xmlns:xlink="http://www.w3.org/1999/xlink" width="69.872" height="68" viewBox="0 0 69.872 68">
  <defs>
    <clipPath id="clip-path">
      <rect id="Rectangle_1511" data-name="Rectangle 1511" width="69.872" height="68" fill="none" stroke="#b2d33c" stroke-width="2"/>
    </clipPath>
  </defs>
  <g id="Group_567" data-name="Group 567" transform="translate(0 0)">
    <g id="Group_566" data-name="Group 566" transform="translate(0 0)" clip-path="url(#clip-path)">
      <path id="Path_254" data-name="Path 254" d="M.544,40.417l5.57-3.608a3.4,3.4,0,0,1,4.026.241l2.078,1.729a3.4,3.4,0,0,0,4.091.2l3.129-2.129a3.4,3.4,0,0,1,4.013.136l2.379,1.862a3.4,3.4,0,0,0,4.08.088l2.848-2.039a3.4,3.4,0,0,1,4.007.031L39.436,38.9a3.4,3.4,0,0,0,4.079-.021l2.558-1.935a3.4,3.4,0,0,1,4.009-.072l2.957,2.077a3.406,3.406,0,0,0,4.085-.13l2.262-1.814a3.4,3.4,0,0,1,4.017-.175l5.373,3.586" transform="translate(0.269 17.912)" fill="none" stroke="#b2d33c" stroke-miterlimit="10" stroke-width="2"/>
      <path id="Path_255" data-name="Path 255" d="M.544,46.051l5.57-3.608a3.4,3.4,0,0,1,4.026.239l2.078,1.73a3.406,3.406,0,0,0,4.091.2l3.129-2.129a3.405,3.405,0,0,1,4.013.134l2.379,1.863a3.4,3.4,0,0,0,4.08.088l2.848-2.039a3.4,3.4,0,0,1,4.007.03l2.671,1.978a3.4,3.4,0,0,0,4.079-.021l2.558-1.935a3.4,3.4,0,0,1,4.009-.072l2.957,2.077a3.406,3.406,0,0,0,4.085-.13l2.262-1.814a3.4,3.4,0,0,1,4.017-.175l5.373,3.586" transform="translate(0.269 20.695)" fill="none" stroke="#b2d33c" stroke-miterlimit="10" stroke-width="2"/>
      <path id="Path_256" data-name="Path 256" d="M22.019,32.359,2.891,12.906A1.661,1.661,0,0,1,5.044,10.4L22.019,21.9" transform="translate(1.204 4.992)" fill="none" stroke="#b2d33c" stroke-miterlimit="10" stroke-width="2"/>
      <path id="Path_257" data-name="Path 257" d="M14.544,31v8.964m8.964,1.494V31" transform="translate(7.185 15.315)" fill="none" stroke="#b2d33c" stroke-miterlimit="10" stroke-width="2"/>
      <path id="Path_258" data-name="Path 258" d="M31.544,31v8.964m8.964,1.494V31" transform="translate(15.584 15.315)" fill="none" stroke="#b2d33c" stroke-miterlimit="10" stroke-width="2"/>
      <line id="Line_57" data-name="Line 57" x2="16.435" transform="translate(8.283 16.434)" fill="none" stroke="#b2d33c" stroke-miterlimit="10" stroke-width="2"/>
      <line id="Line_58" data-name="Line 58" y1="10.458" transform="translate(48.622 10.458)" fill="none" stroke="#b2d33c" stroke-miterlimit="10" stroke-width="2"/>
      <line id="Line_59" data-name="Line 59" y1="20.917" transform="translate(54.598 0)" fill="none" stroke="#b2d33c" stroke-miterlimit="10" stroke-width="2"/>
      <rect id="Rectangle_1510" data-name="Rectangle 1510" width="52.292" height="5.976" transform="translate(12.765 40.339)" fill="none" stroke="#b2d33c" stroke-miterlimit="10" stroke-width="2"/>
      <path id="Path_259" data-name="Path 259" d="M32.484,24.917,26.508,4H23.52L17.544,24.917" transform="translate(8.667 1.976)" fill="none" stroke="#b2d33c" stroke-miterlimit="10" stroke-width="2"/>
      <path id="Path_260" data-name="Path 260" d="M52.895,31.446V18H15.544V31.446" transform="translate(7.679 8.893)" fill="none" stroke="#b2d33c" stroke-miterlimit="10" stroke-width="2"/>
      <line id="Line_60" data-name="Line 60" x1="4.482" transform="translate(36.669 34.363)" fill="none" stroke="#b2d33c" stroke-miterlimit="10" stroke-width="2"/>
      <line id="Line_61" data-name="Line 61" x1="4.482" transform="translate(44.14 34.363)" fill="none" stroke="#b2d33c" stroke-miterlimit="10" stroke-width="2"/>
      <line id="Line_62" data-name="Line 62" x1="4.482" transform="translate(51.61 34.363)" fill="none" stroke="#b2d33c" stroke-miterlimit="10" stroke-width="2"/>
      <line id="Line_63" data-name="Line 63" y2="28.387" transform="translate(5.294 19.422)" fill="none" stroke="#b2d33c" stroke-miterlimit="10" stroke-width="2"/>
      <path id="Path_261" data-name="Path 261" d="M30.544,16.988V14H42.5v2.988" transform="translate(15.09 6.916)" fill="none" stroke="#b2d33c" stroke-miterlimit="10" stroke-width="2"/>
    </g>
  </g>
</svg>
