<svg xmlns="http://www.w3.org/2000/svg" xmlns:xlink="http://www.w3.org/1999/xlink" width="69.861" height="62" viewBox="0 0 69.861 62">
  <defs>
    <clipPath id="clip-path">
      <rect id="Rectangle_1514" data-name="Rectangle 1514" width="69.861" height="62" fill="none" stroke="#b2d33c" stroke-width="2"/>
    </clipPath>
  </defs>
  <g id="Group_573" data-name="Group 573" transform="translate(0 0)">
    <g id="Group_572" data-name="Group 572" transform="translate(0 0)" clip-path="url(#clip-path)">
      <path id="Path_282" data-name="Path 282" d="M58.776,36.561l-6.152-4.82a3.254,3.254,0,0,0-4.448.32l-2.3,2.31a3.257,3.257,0,0,1-4.519.263L37.905,31.79a3.249,3.249,0,0,0-4.433.18l-2.626,2.489a3.252,3.252,0,0,1-4.509.116l-3.145-2.725a3.244,3.244,0,0,0-4.426.042l-2.95,2.642a3.252,3.252,0,0,1-4.506-.028L8.485,31.921a3.247,3.247,0,0,0-4.429-.095L.79,34.6" transform="translate(0.36 14.118)" fill="none" stroke="#b2d33c" stroke-linejoin="round" stroke-width="2"/>
      <path id="Path_283" data-name="Path 283" d="M65.135,41.634,61.68,38.79a3.248,3.248,0,0,0-4.433.18L54.62,41.459a3.251,3.251,0,0,1-4.507.116l-3.145-2.725a3.244,3.244,0,0,0-4.426.042L39.59,41.535a3.251,3.251,0,0,1-4.5-.028l-2.826-2.586a3.245,3.245,0,0,0-4.427-.095L24.564,41.6a3.253,3.253,0,0,1-4.51-.175L17.554,39a3.252,3.252,0,0,0-4.439-.234L7.18,43.561" transform="translate(3.27 17.306)" fill="none" stroke="#b2d33c" stroke-linejoin="round" stroke-width="2"/>
      <path id="Path_284" data-name="Path 284" d="M2.466,34.01a4.832,4.832,0,0,1-1.466-4v-6.64H34.475L41.647,19h26.3a9.626,9.626,0,0,1-2.055,6C63,28.84,57.19,31.163,57.19,35.01" transform="translate(0.455 8.653)" fill="none" stroke="#b2d33c" stroke-linejoin="round" stroke-width="2"/>
      <path id="Path_285" data-name="Path 285" d="M25.742,27.465V18.733h2.911V12.911H25.742V10H3.911v2.911H1v5.822H3.911v8.733" transform="translate(0.455 4.554)" fill="none" stroke="#b2d33c" stroke-miterlimit="10" stroke-width="2"/>
      <line id="Line_73" data-name="Line 73" y2="14.341" transform="translate(9.219 0)" fill="none" stroke="#b2d33c" stroke-linejoin="round" stroke-width="2"/>
      <line id="Line_74" data-name="Line 74" y2="7.171" transform="translate(14.341 7.171)" fill="none" stroke="#b2d33c" stroke-linejoin="round" stroke-width="2"/>
      <line id="Line_75" data-name="Line 75" x2="3.073" transform="translate(10.244 20.487)" fill="none" stroke="#b2d33c" stroke-linejoin="round" stroke-width="2"/>
      <line id="Line_76" data-name="Line 76" x2="3.073" transform="translate(17.414 20.487)" fill="none" stroke="#b2d33c" stroke-linejoin="round" stroke-width="2"/>
      <line id="Line_77" data-name="Line 77" x1="4.097" transform="translate(41.999 34.828)" fill="none" stroke="#b2d33c" stroke-linejoin="round" stroke-width="2"/>
    </g>
  </g>
</svg>
