<svg xmlns="http://www.w3.org/2000/svg" xmlns:xlink="http://www.w3.org/1999/xlink" width="68" height="68" viewBox="0 0 68 68">
  <defs>
    <clipPath id="clip-path">
      <rect id="Rectangle_1504" data-name="Rectangle 1504" width="68" height="68" transform="translate(0 0)" fill="none" stroke="#b2d33c" stroke-width="2"/>
    </clipPath>
  </defs>
  <g id="Group_557" data-name="Group 557" transform="translate(-0.004 0.756)">
    <g id="Group_556" data-name="Group 556" transform="translate(0.004 -0.756)" clip-path="url(#clip-path)">
      <path id="Path_226" data-name="Path 226" d="M108.379,9.749a5.283,5.283,0,1,0,5.283-5.257A5.27,5.27,0,0,0,108.379,9.749Z" transform="translate(-79.726 -2.6)" fill="none" stroke="#b2d33c" stroke-linecap="round" stroke-linejoin="round" stroke-width="2"/>
      <path id="Path_227" data-name="Path 227" d="M111.191,56.9a3.146,3.146,0,0,0,2.034-2.947V52.9c0-6.308-3.873-8.411-7.608-8.411h-1.691c-3.735,0-7.608,2.1-7.608,8.411v1.051A3.146,3.146,0,0,0,98.353,56.9a18.8,18.8,0,0,0,12.838,0Z" transform="translate(-70.835 -32.085)" fill="none" stroke="#b2d33c" stroke-linecap="round" stroke-linejoin="round" stroke-width="2"/>
      <path id="Path_228" data-name="Path 228" d="M16.06,165.257A5.283,5.283,0,1,0,21.343,160,5.27,5.27,0,0,0,16.06,165.257Z" transform="translate(-11.672 -117.233)" fill="none" stroke="#b2d33c" stroke-linecap="round" stroke-linejoin="round" stroke-width="2"/>
      <path id="Path_229" data-name="Path 229" d="M18.872,212.538a3.146,3.146,0,0,0,2.033-2.947v-1.18c0-6.308-3.873-8.411-7.608-8.411h-1.69C7.873,200,4,202.1,4,208.411v1.18a3.146,3.146,0,0,0,2.034,2.947,18.185,18.185,0,0,0,6.419,1.13A18.185,18.185,0,0,0,18.872,212.538Z" transform="translate(-2.782 -146.719)" fill="none" stroke="#b2d33c" stroke-linecap="round" stroke-linejoin="round" stroke-width="2"/>
      <path id="Path_230" data-name="Path 230" d="M108.379,165.257A5.283,5.283,0,1,0,113.662,160,5.27,5.27,0,0,0,108.379,165.257Z" transform="translate(-79.726 -117.233)" fill="none" stroke="#b2d33c" stroke-linecap="round" stroke-linejoin="round" stroke-width="2"/>
      <path id="Path_231" data-name="Path 231" d="M111.191,212.538a3.146,3.146,0,0,0,2.034-2.947v-1.18c0-6.308-3.873-8.411-7.608-8.411h-1.691c-3.735,0-7.608,2.1-7.608,8.411v1.18a3.146,3.146,0,0,0,2.034,2.947,18.8,18.8,0,0,0,12.838,0Z" transform="translate(-70.835 -146.719)" fill="none" stroke="#b2d33c" stroke-linecap="round" stroke-linejoin="round" stroke-width="2"/>
      <path id="Path_232" data-name="Path 232" d="M200.06,165.257A5.283,5.283,0,1,0,205.343,160,5.27,5.27,0,0,0,200.06,165.257Z" transform="translate(-147.309 -117.233)" fill="none" stroke="#b2d33c" stroke-linecap="round" stroke-linejoin="round" stroke-width="2"/>
      <path id="Path_233" data-name="Path 233" d="M202.872,212.538a3.146,3.146,0,0,0,2.034-2.947v-1.18c0-6.308-3.873-8.411-7.608-8.411h-1.691c-3.735,0-7.608,2.1-7.608,8.411v1.18a3.146,3.146,0,0,0,2.034,2.947,18.8,18.8,0,0,0,12.838,0Z" transform="translate(-138.419 -146.719)" fill="none" stroke="#b2d33c" stroke-linecap="round" stroke-linejoin="round" stroke-width="2"/>
      <line id="Line_36" data-name="Line 36" y2="10.462" transform="translate(34.523 29.292)" fill="none" stroke="#b2d33c" stroke-linecap="round" stroke-linejoin="round" stroke-width="2"/>
      <line id="Line_37" data-name="Line 37" x2="48.321" transform="translate(9.713 34.356)" fill="none" stroke="#b2d33c" stroke-linecap="round" stroke-linejoin="round" stroke-width="2"/>
      <line id="Line_38" data-name="Line 38" y2="5.231" transform="translate(9.415 34.523)" fill="none" stroke="#b2d33c" stroke-linecap="round" stroke-linejoin="round" stroke-width="2"/>
      <line id="Line_39" data-name="Line 39" y2="5.257" transform="translate(58.034 34.356)" fill="none" stroke="#b2d33c" stroke-linecap="round" stroke-linejoin="round" stroke-width="2"/>
    </g>
  </g>
</svg>
