<svg id="Group_559" data-name="Group 559" xmlns="http://www.w3.org/2000/svg" xmlns:xlink="http://www.w3.org/1999/xlink" width="83" height="59" viewBox="0 0 83 59">
  <defs>
    <clipPath id="clip-path">
      <rect id="Rectangle_1506" data-name="Rectangle 1506" width="83" height="59" fill="none" stroke="#b2d33c" stroke-width="2"/>
    </clipPath>
  </defs>
  <g id="Group_558" data-name="Group 558" clip-path="url(#clip-path)">
    <path id="Path_234" data-name="Path 234" d="M16.046,29a5.171,5.171,0,1,1-9.752,0" transform="translate(4.341 20.981)" fill="none" stroke="#b2d33c" stroke-miterlimit="10" stroke-width="2"/>
    <path id="Path_235" data-name="Path 235" d="M22.046,29a5.171,5.171,0,1,1-9.752,0" transform="translate(8.682 20.981)" fill="none" stroke="#b2d33c" stroke-miterlimit="10" stroke-width="2"/>
    <path id="Path_236" data-name="Path 236" d="M40.046,29a5.171,5.171,0,1,1-9.752,0" transform="translate(21.705 20.981)" fill="none" stroke="#b2d33c" stroke-miterlimit="10" stroke-width="2"/>
    <path id="Path_237" data-name="Path 237" d="M46.046,29a5.171,5.171,0,1,1-9.752,0" transform="translate(26.046 20.981)" fill="none" stroke="#b2d33c" stroke-miterlimit="10" stroke-width="2"/>
    <path id="Path_238" data-name="Path 238" d="M68.216,38.47c5.908,0,12.064-7.869,12.064-17.235S74.124,4,68.216,4H13.064C7.156,4,1,11.869,1,21.235S7.156,38.47,13.064,38.47Z" transform="translate(0.723 2.894)" fill="none" stroke="#b2d33c" stroke-miterlimit="10" stroke-width="2"/>
    <line id="Line_40" data-name="Line 40" y2="7" transform="translate(2 43)" fill="none" stroke="#b2d33c" stroke-miterlimit="10" stroke-width="2"/>
    <line id="Line_41" data-name="Line 41" x1="5" transform="translate(2 47)" fill="none" stroke="#b2d33c" stroke-miterlimit="10" stroke-width="2"/>
    <rect id="Rectangle_1505" data-name="Rectangle 1505" width="69" height="9" rx="2" transform="translate(7 41)" fill="none" stroke="#b2d33c" stroke-miterlimit="10" stroke-width="2"/>
    <line id="Line_42" data-name="Line 42" y2="7" transform="translate(81 43)" fill="none" stroke="#b2d33c" stroke-miterlimit="10" stroke-width="2"/>
    <line id="Line_43" data-name="Line 43" x2="5" transform="translate(76 47)" fill="none" stroke="#b2d33c" stroke-miterlimit="10" stroke-width="2"/>
    <line id="Line_44" data-name="Line 44" y2="38" transform="translate(65)" fill="none" stroke="#b2d33c" stroke-miterlimit="10" stroke-width="2"/>
    <line id="Line_45" data-name="Line 45" y1="38" transform="translate(53)" fill="none" stroke="#b2d33c" stroke-miterlimit="10" stroke-width="2"/>
    <line id="Line_46" data-name="Line 46" x1="9" transform="translate(53 14)" fill="none" stroke="#b2d33c" stroke-miterlimit="10" stroke-width="2"/>
    <line id="Line_47" data-name="Line 47" x1="9" transform="translate(53 22)" fill="none" stroke="#b2d33c" stroke-miterlimit="10" stroke-width="2"/>
    <line id="Line_48" data-name="Line 48" x1="9" transform="translate(53 31)" fill="none" stroke="#b2d33c" stroke-miterlimit="10" stroke-width="2"/>
    <line id="Line_49" data-name="Line 49" x2="10" transform="translate(19 2)" fill="none" stroke="#b2d33c" stroke-miterlimit="10" stroke-width="2"/>
  </g>
</svg>
