<svg id="Group_563" data-name="Group 563" xmlns="http://www.w3.org/2000/svg" xmlns:xlink="http://www.w3.org/1999/xlink" width="71.698" height="68" viewBox="0 0 71.698 68">
  <defs>
    <clipPath id="clip-path">
      <rect id="Rectangle_1508" data-name="Rectangle 1508" width="71.697" height="68" fill="none" stroke="#b2d33c" stroke-width="2"/>
    </clipPath>
  </defs>
  <g id="Group_562" data-name="Group 562" clip-path="url(#clip-path)">
    <path id="Path_244" data-name="Path 244" d="M12.938,38.292s5.479,2.461,12.617-3.116c10.407-8.131,6.283-24.312-3.781-29.051,0,0,.638,4.322-5.522,8.7-4.966,3.533-13.541,7.914-8.689,20.823" transform="translate(-4.981 -4.981)" fill="none" stroke="#b2d33c" stroke-linecap="round" stroke-linejoin="round" stroke-width="2"/>
    <path id="Path_245" data-name="Path 245" d="M154.045,190.219h0a3.176,3.176,0,0,1,1.721-1.366l1.163-.382a3.176,3.176,0,0,0,1.721-1.366l2.3-3.777a3.176,3.176,0,0,1,1.309-1.2l2.157-1.063a3.176,3.176,0,0,0,1.747-2.449l.559-4.405a3.176,3.176,0,0,0-2.391-3.483l-.923-.227a3.178,3.178,0,0,1-1.47-.822l-4.462-4.4a3.894,3.894,0,0,0-3.949-.926,3.177,3.177,0,0,1-2.227-.092l-3.914-1.654a3.176,3.176,0,0,0-4.148,1.659l-1.439,3.31a3.176,3.176,0,0,0,.282,3.045l3.363,4.973a3.167,3.167,0,0,0,.4.482l.915.9a3.175,3.175,0,0,1,.921,2.661l-.8,6.283a3.175,3.175,0,0,0,.4,1.992l1.3,2.24A3.176,3.176,0,0,0,154.045,190.219Z" transform="translate(-115.105 -132.042)" fill="none" stroke="#b2d33c" stroke-linecap="round" stroke-linejoin="round" stroke-width="2"/>
    <path id="Path_246" data-name="Path 246" d="M44.844,36.107A31.441,31.441,0,1,0,63.311,21.853c-.683.2-1.365.413-2.034.656" transform="translate(-32.9 -16.796)" fill="none" stroke="#b2d33c" stroke-linecap="round" stroke-linejoin="round" stroke-width="2"/>
    <path id="Path_247" data-name="Path 247" d="M211.577,63.513l-5.643.017a2.676,2.676,0,0,0-2.444,1.6l-1.528,3.494a2.676,2.676,0,0,1-1.135,1.257l0,0a2.676,2.676,0,0,0-.343,4.429l2.078,1.643a2.676,2.676,0,0,0,2.4.473l2.656-.761a2.677,2.677,0,0,1,2.859.941l1.957,2.545a2.677,2.677,0,0,0,1.638,1l4.6.844a2.677,2.677,0,0,1,2.193,2.574l.093,4.266a2.676,2.676,0,0,0,.753,1.8L226.884,95" transform="translate(-162.217 -51.653)" fill="none" stroke="#b2d33c" stroke-linecap="round" stroke-linejoin="round" stroke-width="2"/>
  </g>
</svg>
