<svg xmlns="http://www.w3.org/2000/svg" width="27" height="27" viewBox="0 0 27 27">
  <g id="fb-ic" transform="translate(7001 568)">
    <path id="Path_60" data-name="Path 60" d="M707.531,1380.006v2.863a.386.386,0,0,1-.01.147.239.239,0,0,1-.14.014q-.809,0-1.624,0c-.136,0-.275,0-.411.007a3.167,3.167,0,0,0-.835.156,1.894,1.894,0,0,0-1.247,1.262,2.509,2.509,0,0,0-.119.762q0,1.336,0,2.675a.172.172,0,0,0,.009.092c.023.024.052.016.08.016h3.96a.424.424,0,0,1,.159.015c-.01.071-.017.137-.029.2-.211,1.314-.424,2.633-.637,3.942a.175.175,0,0,1-.132.024h-3.377c-.04.026-.033.054-.033.08v11.924h-4.758V1392.2a.353.353,0,0,0-.161-.017h-3.667c-.033-.026-.023-.056-.025-.082v-4.08a.306.306,0,0,1,.147-.019h3.679a.1.1,0,0,0,.027-.094v-3.095c0-.281.018-.56.045-.836a6.264,6.264,0,0,1,.208-1.094,5.031,5.031,0,0,1,.805-1.665c.025-.033.05-.067.078-.1a4.693,4.693,0,0,1,1.86-1.415,6.039,6.039,0,0,1,1.425-.413,8.744,8.744,0,0,1,1.473-.107c.314,0,.627.017.94.035.369.022.739.055,1.105.1.251.026.5.057.746.089l.228.029c.07.009.139.023.2.032.033.026.025.055.027.08Z" transform="translate(-7688.534 -1946.187)" fill="#fff"/>
    <rect id="Rectangle_1604" data-name="Rectangle 1604" width="27" height="27" transform="translate(-7001 -568)" fill="none"/>
  </g>
</svg>
