<svg xmlns="http://www.w3.org/2000/svg" width="361.238" height="102.567" viewBox="0 0 361.238 102.567">
  <g id="Group_490" data-name="Group 490" transform="translate(0.316 0.202)" opacity="0.52">
    <path id="Path_39" data-name="Path 39" d="M527.659,140.621s19.061,10.228,54.3,4.1c35-6.092,66.917-36.819,131.224-44.541s126.235,7.17,126.235,7.17" transform="translate(-478.75 -91.342)" fill="none" stroke="#d5f2fc" stroke-miterlimit="10" stroke-width="0.75"/>
    <path id="Path_40" data-name="Path 40" d="M527.659,152.754s19.458,10.341,54.309,4.424c35.231-5.915,65.836-35.827,130.155-43.365,64.682-7.559,127.293,9.765,127.293,9.765" transform="translate(-478.75 -103.475)" fill="none" stroke="#d5f2fc" stroke-miterlimit="10" stroke-width="0.75"/>
    <path id="Path_41" data-name="Path 41" d="M527.659,164.489s19.855,10.454,54.321,4.751c35.459-5.738,64.756-34.836,129.085-42.188,65.056-7.4,128.351,12.359,128.351,12.359" transform="translate(-478.75 -115.21)" fill="none" stroke="#d5f2fc" stroke-miterlimit="10" stroke-width="0.75"/>
    <path id="Path_42" data-name="Path 42" d="M527.659,175.927s20.244,10.479,54.334,5.078c35.677-5.652,63.676-33.844,128.016-41.011,65.43-7.233,129.409,14.954,129.409,14.954" transform="translate(-478.75 -126.647)" fill="none" stroke="#d5f2fc" stroke-miterlimit="10" stroke-width="0.75"/>
    <path id="Path_43" data-name="Path 43" d="M527.659,187.138s20.639,10.57,54.346,5.406c35.9-5.5,62.6-32.852,126.946-39.835,65.8-7.07,130.466,17.549,130.466,17.549" transform="translate(-478.75 -137.858)" fill="none" stroke="#d5f2fc" stroke-miterlimit="10" stroke-width="0.75"/>
    <path id="Path_44" data-name="Path 44" d="M527.659,198.171s21.035,10.664,54.358,5.733c36.128-5.346,61.516-31.86,125.876-38.658,66.178-6.906,131.524,20.144,131.524,20.144" transform="translate(-478.75 -148.892)" fill="none" stroke="#d5f2fc" stroke-miterlimit="10" stroke-width="0.75"/>
    <path id="Path_45" data-name="Path 45" d="M527.659,209.063s21.432,10.762,54.371,6.061c36.354-5.189,60.435-30.868,124.807-37.481,66.552-6.743,132.582,22.738,132.582,22.738" transform="translate(-478.75 -159.783)" fill="none" stroke="#d5f2fc" stroke-miterlimit="10" stroke-width="0.75"/>
    <path id="Path_46" data-name="Path 46" d="M527.659,219.84s21.828,10.863,54.383,6.388c36.581-5.028,59.355-29.876,123.737-36.3,66.927-6.58,133.64,25.333,133.64,25.333" transform="translate(-478.75 -170.56)" fill="none" stroke="#d5f2fc" stroke-miterlimit="10" stroke-width="0.75"/>
    <path id="Path_47" data-name="Path 47" d="M527.659,230.523s22.225,10.967,54.4,6.716c36.808-4.864,58.275-28.884,122.668-35.128,67.3-6.417,134.7,27.928,134.7,27.928" transform="translate(-478.75 -181.243)" fill="none" stroke="#d5f2fc" stroke-miterlimit="10" stroke-width="0.75"/>
    <path id="Path_48" data-name="Path 48" d="M527.659,241.127s22.623,11.075,54.408,7.043c37.035-4.7,57.2-27.892,121.6-33.951,67.674-6.254,135.755,30.523,135.755,30.523" transform="translate(-478.75 -191.848)" fill="none" stroke="#d5f2fc" stroke-miterlimit="10" stroke-width="0.75"/>
    <path id="Path_49" data-name="Path 49" d="M527.659,251.667s23.021,11.185,54.42,7.371c37.262-4.527,56.115-26.9,120.528-32.775,68.049-6.091,136.813,33.118,136.813,33.118" transform="translate(-478.75 -202.387)" fill="none" stroke="#d5f2fc" stroke-miterlimit="10" stroke-width="0.75"/>
    <path id="Path_50" data-name="Path 50" d="M527.659,262.15s23.419,11.3,54.432,7.7c37.49-4.353,55.035-25.908,119.459-31.6,68.423-5.928,137.871,35.713,137.871,35.713" transform="translate(-478.75 -212.871)" fill="none" stroke="#d5f2fc" stroke-miterlimit="10" stroke-width="0.75"/>
    <path id="Path_51" data-name="Path 51" d="M527.659,272.586S551.476,284,582.1,280.611c37.719-4.175,53.955-24.916,118.389-30.422,68.8-5.765,138.929,38.307,138.929,38.307" transform="translate(-478.75 -223.306)" fill="none" stroke="#d5f2fc" stroke-miterlimit="10" stroke-width="0.75"/>
    <path id="Path_52" data-name="Path 52" d="M527.659,282.981a111.9,111.9,0,0,0,54.457,8.353c37.947-3.993,52.874-23.924,117.319-29.245,69.171-5.6,139.987,40.9,139.987,40.9" transform="translate(-478.75 -233.701)" fill="none" stroke="#d5f2fc" stroke-miterlimit="10" stroke-width="0.75"/>
    <path id="Path_53" data-name="Path 53" d="M527.659,293.341s24.614,11.658,54.469,8.68c38.175-3.808,51.794-22.933,116.25-28.068,69.545-5.439,141.044,43.5,141.044,43.5" transform="translate(-478.75 -244.061)" fill="none" stroke="#d5f2fc" stroke-miterlimit="10" stroke-width="0.75"/>
    <path id="Path_54" data-name="Path 54" d="M527.659,303.669s25.012,11.784,54.482,9.008c38.4-3.618,50.714-21.941,115.18-26.892,69.919-5.276,142.1,46.092,142.1,46.092" transform="translate(-478.75 -254.39)" fill="none" stroke="#d5f2fc" stroke-miterlimit="10" stroke-width="0.75"/>
    <path id="Path_55" data-name="Path 55" d="M527.659,313.971s25.411,11.912,54.494,9.335c38.633-3.423,49.634-20.949,114.111-25.715,70.293-5.113,143.16,48.687,143.16,48.687" transform="translate(-478.75 -264.691)" fill="none" stroke="#d5f2fc" stroke-miterlimit="10" stroke-width="0.75"/>
    <path id="Path_56" data-name="Path 56" d="M527.659,324.248s25.81,12.044,54.506,9.663c38.862-3.225,48.554-19.957,113.041-24.538,70.667-4.949,144.218,51.281,144.218,51.281" transform="translate(-478.75 -274.968)" fill="none" stroke="#d5f2fc" stroke-miterlimit="10" stroke-width="0.75"/>
    <path id="Path_57" data-name="Path 57" d="M527.659,334.5s26.209,12.178,54.519,9.99c39.091-3.021,47.474-18.965,111.971-23.362,71.041-4.786,145.276,53.876,145.276,53.876" transform="translate(-478.75 -285.224)" fill="none" stroke="#d5f2fc" stroke-miterlimit="10" stroke-width="0.75"/>
    <path id="Path_58" data-name="Path 58" d="M527.659,344.741s26.61,12.371,54.531,10.318c39.324-2.733,46.393-17.973,110.9-22.185,71.416-4.623,146.334,56.471,146.334,56.471" transform="translate(-478.75 -295.461)" fill="none" stroke="#d5f2fc" stroke-miterlimit="10" stroke-width="0.75"/>
    <path id="Path_59" data-name="Path 59" d="M527.659,354.96s27.007,12.484,54.544,10.645c39.551-2.556,45.313-16.981,109.832-21.008,71.79-4.46,147.391,59.066,147.391,59.066" transform="translate(-478.75 -305.681)" fill="none" stroke="#d5f2fc" stroke-miterlimit="10" stroke-width="0.75"/>
    <path id="Path_60" data-name="Path 60" d="M527.659,365.165s27.4,12.6,54.556,10.973c39.779-2.38,44.233-15.989,108.762-19.832,72.164-4.3,148.449,61.661,148.449,61.661" transform="translate(-478.75 -315.885)" fill="none" stroke="#d5f2fc" stroke-miterlimit="10" stroke-width="0.75"/>
    <path id="Path_61" data-name="Path 61" d="M354.444,116.224S317.857,87.55,247.821,91.69c-69.932,4.134-83.917,25.169-145.7,16.536S14.541,69.351.311,47.154" transform="translate(-0.311 -47.154)" fill="none" stroke="#d5f2fc" stroke-miterlimit="10" stroke-width="0.75"/>
    <path id="Path_62" data-name="Path 62" d="M354.444,140.672s-37.23-28.261-107.106-23.659c-69.3,4.5-83.888,25.382-145.108,17.264C40.289,126.19,13.863,96.4.311,75.261" transform="translate(-0.311 -71.602)" fill="none" stroke="#d5f2fc" stroke-miterlimit="10" stroke-width="0.75"/>
    <path id="Path_63" data-name="Path 63" d="M354.444,165.12s-37.872-27.848-107.588-22.785c-68.665,4.859-83.859,25.6-144.515,17.992-62.1-7.54-89.156-36.876-102.031-56.959" transform="translate(-0.311 -96.05)" fill="none" stroke="#d5f2fc" stroke-miterlimit="10" stroke-width="0.75"/>
    <path id="Path_64" data-name="Path 64" d="M354.444,189.568s-38.515-27.435-108.07-21.91c-68.032,5.222-83.812,25.642-143.922,18.72C40.212,179.211,12.508,150.5.311,131.475" transform="translate(-0.311 -120.498)" fill="none" stroke="#d5f2fc" stroke-miterlimit="10" stroke-width="0.75"/>
    <path id="Path_65" data-name="Path 65" d="M354.444,214.016s-39.157-27.022-108.552-21.035c-67.4,5.585-83.78,25.812-143.329,19.448-62.4-6.668-90.734-34.877-102.253-52.847" transform="translate(-0.311 -144.946)" fill="none" stroke="#d5f2fc" stroke-miterlimit="10" stroke-width="0.75"/>
    <path id="Path_66" data-name="Path 66" d="M354.444,238.464s-39.8-26.609-109.034-20.161c-66.765,5.948-83.749,25.988-142.736,20.176C40.124,232.316,11.153,204.6.311,187.689" transform="translate(-0.311 -169.394)" fill="none" stroke="#d5f2fc" stroke-miterlimit="10" stroke-width="0.75"/>
    <path id="Path_67" data-name="Path 67" d="M354.444,262.912s-40.428-26.038-109.516-19.286c-66.118,6.462-83.719,26.17-142.142,20.9C40.077,258.877,10.475,231.651.311,215.8" transform="translate(-0.311 -193.842)" fill="none" stroke="#d5f2fc" stroke-miterlimit="10" stroke-width="0.75"/>
    <path id="Path_68" data-name="Path 68" d="M354.444,287.36s-41.068-25.61-110-18.411c-65.483,6.838-83.691,26.359-141.549,21.632C40.03,285.444,9.8,258.7.311,243.9" transform="translate(-0.311 -218.29)" fill="none" stroke="#d5f2fc" stroke-miterlimit="10" stroke-width="0.75"/>
    <path id="Path_69" data-name="Path 69" d="M354.444,311.808s-41.708-25.185-110.48-17.537c-64.847,7.212-83.663,26.554-140.956,22.36C39.982,312.017,9.12,285.751.311,272.01" transform="translate(-0.311 -242.738)" fill="none" stroke="#d5f2fc" stroke-miterlimit="10" stroke-width="0.75"/>
    <path id="Path_70" data-name="Path 70" d="M354.444,336.256S312.1,311.493,243.483,319.594c-64.212,7.581-83.635,26.755-140.363,23.088C39.933,338.6,8.442,312.8.311,300.117" transform="translate(-0.311 -267.186)" fill="none" stroke="#d5f2fc" stroke-miterlimit="10" stroke-width="0.75"/>
    <path id="Path_71" data-name="Path 71" d="M354.444,360.7S311.455,336.359,243,344.916c-63.577,7.948-83.608,26.963-139.77,23.816C39.884,365.183,7.765,339.851.311,328.224" transform="translate(-0.311 -291.634)" fill="none" stroke="#d5f2fc" stroke-miterlimit="10" stroke-width="0.75"/>
    <path id="Path_72" data-name="Path 72" d="M354.444,385.152s-43.63-23.93-111.926-14.913c-62.942,8.311-83.582,27.177-139.177,24.544C39.834,391.776,7.087,366.9.311,356.331" transform="translate(-0.311 -316.082)" fill="none" stroke="#d5f2fc" stroke-miterlimit="10" stroke-width="0.75"/>
    <path id="Path_73" data-name="Path 73" d="M354.444,409.6s-44.272-23.519-112.408-14.038c-62.308,8.67-83.556,27.4-138.584,25.272C39.784,418.376,6.409,393.951.311,384.438" transform="translate(-0.311 -340.53)" fill="none" stroke="#d5f2fc" stroke-miterlimit="10" stroke-width="0.75"/>
    <path id="Path_74" data-name="Path 74" d="M354.444,434.048s-44.914-23.112-112.89-13.163c-61.674,9.026-83.529,27.622-137.991,26C39.734,444.983,5.732,421,.311,412.545" transform="translate(-0.311 -364.978)" fill="none" stroke="#d5f2fc" stroke-miterlimit="10" stroke-width="0.75"/>
    <path id="Path_75" data-name="Path 75" d="M354.444,458.5s-45.556-22.709-113.372-12.289c-61.041,9.379-83.5,27.855-137.4,26.728C39.684,471.6,5.054,448.051.311,440.652" transform="translate(-0.311 -389.426)" fill="none" stroke="#d5f2fc" stroke-miterlimit="10" stroke-width="0.75"/>
    <path id="Path_76" data-name="Path 76" d="M354.444,481.429s-46.2-22.31-113.854-11.414c-60.408,9.729-83.477,28.093-136.8,27.456C39.634,496.7,4.377,473.586.311,467.243" transform="translate(-0.311 -412.359)" fill="none" stroke="#d5f2fc" stroke-miterlimit="10" stroke-width="0.75"/>
    <path id="Path_77" data-name="Path 77" d="M354.444,485.425S307.6,463.511,240.109,474.885c-59.776,10.074-83.45,28.337-136.212,28.184C39.584,502.883,3.7,480.184.311,474.9" transform="translate(-0.311 -416.355)" fill="none" stroke="#d5f2fc" stroke-miterlimit="10" stroke-width="0.75"/>
    <path id="Path_78" data-name="Path 78" d="M354.444,488.976s-47.509-21.654-114.818-9.665c-59.163,10.3-83.423,28.587-135.619,28.912-64.473.4-100.987-21.886-103.7-26.114" transform="translate(-0.311 -419.907)" fill="none" stroke="#d5f2fc" stroke-miterlimit="10" stroke-width="0.75"/>
    <path id="Path_79" data-name="Path 79" d="M354.444,492.843s-48.152-21.241-115.3-8.79c-58.53,10.665-83.4,28.842-135.025,29.64-64.632,1-101.775-20.887-103.808-24.058" transform="translate(-0.311 -423.773)" fill="none" stroke="#d5f2fc" stroke-miterlimit="10" stroke-width="0.75"/>
    <path id="Path_80" data-name="Path 80" d="M354.444,496.626S305.65,475.8,238.663,488.71c-57.9,11.028-83.367,29.1-134.432,30.368-64.79,1.6-102.564-19.887-103.919-22" transform="translate(-0.311 -427.556)" fill="none" stroke="#d5f2fc" stroke-miterlimit="10" stroke-width="0.75"/>
    <path id="Path_81" data-name="Path 81" d="M354.444,500.325s-49.437-20.416-116.264-7.041c-57.263,11.39-83.335,29.431-133.839,31.1C39.4,526.674.989,505.491.311,504.434" transform="translate(-0.311 -431.255)" fill="none" stroke="#d5f2fc" stroke-miterlimit="10" stroke-width="0.75"/>
    <path id="Path_82" data-name="Path 82" d="M354.444,503.939s-50.08-20-116.746-6.166c-56.629,11.753-83.306,29.645-133.246,31.824C39.349,532.438.311,511.708.311,511.708" transform="translate(-0.311 -434.869)" fill="none" stroke="#d5f2fc" stroke-miterlimit="10" stroke-width="0.75"/>
  </g>
</svg>
