<svg xmlns="http://www.w3.org/2000/svg" width="27" height="27" viewBox="0 0 27 27">
  <g id="lin-ic" transform="translate(6920 583)">
    <g id="Group_662" data-name="Group 662" transform="translate(-2.5 2.5)">
      <path id="Path_342" data-name="Path 342" d="M763.991,1380.375a2.411,2.411,0,0,1,.952.914,2.569,2.569,0,0,1,.345,1.329,2.639,2.639,0,0,1-.338,1.342,2.36,2.36,0,0,1-.952.914,3.1,3.1,0,0,1-2.775,0,2.413,2.413,0,0,1-.953-.914,2.764,2.764,0,0,1,0-2.671,2.414,2.414,0,0,1,.953-.914,3.076,3.076,0,0,1,2.768,0Zm-3.781,21.671v-15.457h4.861v15.457Z" transform="translate(-7674.926 -1963.046)" fill="#fff"/>
      <path id="Path_343" data-name="Path 343" d="M779.8,1387.311q1.2,1.352,1.2,4.457v9.075h-4.862v-9.088a2.618,2.618,0,0,0-.222-1.2,1.123,1.123,0,0,0-.635-.561,3.438,3.438,0,0,0-1.087-.142,1.994,1.994,0,0,0-1.756.811v10.182H767.6v-14.612h4.538l.162,1.689a4.908,4.908,0,0,1,1.8-1.459,5.413,5.413,0,0,1,2.35-.5A4.267,4.267,0,0,1,779.8,1387.311Z" transform="translate(-7674.007 -1961.843)" fill="#fff"/>
    </g>
    <rect id="Rectangle_1605" data-name="Rectangle 1605" width="27" height="27" transform="translate(-6920 -583)" fill="none"/>
  </g>
</svg>
