<svg xmlns="http://www.w3.org/2000/svg" width="73.44" height="70" viewBox="0 0 73.44 70">
  <g id="Group_550" data-name="Group 550" transform="translate(-448.72 -2369.719)">
    <path id="Path_217" data-name="Path 217" d="M48.034,17.36V66.167a2.586,2.586,0,0,1-2.553,2.553H3.273A2.573,2.573,0,0,1,.72,66.167V3.275A2.56,2.56,0,0,1,3.273.72H31.394" transform="translate(449 2370)" fill="none" stroke="#b2d33c" stroke-linecap="round" stroke-linejoin="round" stroke-width="2"/>
    <path id="Path_218" data-name="Path 218" d="M31.49,17.36H17.4a2.56,2.56,0,0,1-2.553-2.553V.72Z" transform="translate(465.544 2370)" fill="none" stroke="#b2d33c" stroke-linecap="round" stroke-linejoin="round" stroke-width="2"/>
    <path id="Path_219" data-name="Path 219" d="M26.683,4.651H35.8v47.3c0,9.43-9.115,9.432-9.115,0Z" transform="translate(479.399 2374.602)" fill="none" stroke="#b2d33c" stroke-linecap="round" stroke-linejoin="round" stroke-width="2"/>
    <path id="Path_220" data-name="Path 220" d="M41.759,25.751l.033-17.669H26.657" transform="translate(479.368 2378.62)" fill="none" stroke="#b2d33c" stroke-linecap="round" stroke-linejoin="round" stroke-width="2"/>
    <line id="Line_28" data-name="Line 28" y1="5.095" transform="translate(510.486 2433.623)" fill="none" stroke="#b2d33c" stroke-linecap="round" stroke-linejoin="round" stroke-width="2"/>
    <line id="Line_29" data-name="Line 29" x2="13.451" transform="translate(459.926 2384.398)" fill="none" stroke="#b2d33c" stroke-linecap="round" stroke-linejoin="round" stroke-width="2"/>
    <line id="Line_30" data-name="Line 30" x2="26.903" transform="translate(459.926 2397.128)" fill="none" stroke="#b2d33c" stroke-linecap="round" stroke-linejoin="round" stroke-width="2"/>
    <line id="Line_31" data-name="Line 31" x2="26.903" transform="translate(459.926 2404.559)" fill="none" stroke="#b2d33c" stroke-linecap="round" stroke-linejoin="round" stroke-width="2"/>
    <line id="Line_32" data-name="Line 32" x2="26.903" transform="translate(459.926 2411.99)" fill="none" stroke="#b2d33c" stroke-linecap="round" stroke-linejoin="round" stroke-width="2"/>
    <line id="Line_33" data-name="Line 33" x2="13.451" transform="translate(459.926 2419.421)" fill="none" stroke="#b2d33c" stroke-linecap="round" stroke-linejoin="round" stroke-width="2"/>
  </g>
</svg>
