<svg xmlns="http://www.w3.org/2000/svg" width="84.057" height="70" viewBox="0 0 84.057 70">
  <g id="Group_546" data-name="Group 546" transform="translate(-1116.98 -184)">
    <path id="Path_192" data-name="Path 192" d="M56.722,140.633,35.565,173.195l-6.35-9.157-20.08,27.9a.713.713,0,0,0,.58,1.129H90.3a.713.713,0,0,0,.6-1.107Z" transform="translate(1109 59.937)" fill="none" stroke="#b2d33c" stroke-linecap="round" stroke-linejoin="round" stroke-width="2"/>
    <line id="Line_23" data-name="Line 23" y1="14.761" transform="translate(1165.684 185.092)" fill="none" stroke="#b2d33c" stroke-linecap="round" stroke-linejoin="round" stroke-width="2"/>
    <path id="Path_193" data-name="Path 193" d="M415.875,9h13.542l-4.928,4.932,4.928,4.864H415.875" transform="translate(749.821 176)" fill="none" stroke="#b2d33c" stroke-linecap="round" stroke-linejoin="round" stroke-width="2"/>
    <path id="Path_194" data-name="Path 194" d="M306.422,310.463c3.256,0,3.256,3.076,6.512,3.076s3.256-3.076,6.512-3.076,3.256,3.076,6.513,3.076,3.256-3.076,6.513-3.076" transform="translate(846.374 -90.084)" fill="none" stroke="#b2d33c" stroke-linecap="round" stroke-linejoin="round" stroke-width="2"/>
    <line id="Line_24" data-name="Line 24" x1="6.355" y2="9.772" transform="translate(1139.747 230.722)" fill="none" stroke="#b2d33c" stroke-linecap="round" stroke-linejoin="round" stroke-width="2"/>
    <line id="Line_25" data-name="Line 25" x1="9.902" y1="14.607" transform="translate(1177.933 230.047)" fill="none" stroke="#b2d33c" stroke-linecap="round" stroke-linejoin="round" stroke-width="2"/>
    <line id="Line_26" data-name="Line 26" x1="6.558" y2="9.759" transform="translate(1129.97 235.951)" fill="none" stroke="#b2d33c" stroke-linecap="round" stroke-linejoin="round" stroke-width="2"/>
  </g>
</svg>
