<svg xmlns="http://www.w3.org/2000/svg" width="72.773" height="70" viewBox="0 0 72.773 70">
  <g id="Group_551" data-name="Group 551" transform="translate(-418.72 -2610.72)">
    <path id="Path_221" data-name="Path 221" d="M14.688.72H57.525V33.757c0,10.443-9.651,19.008-21.417,19.008h0c-11.768,0-21.419-8.552-21.419-19.008ZM36.106,52.792V67.715m-19.555,1H55.661M14.188,6.051H.72c2.918,7.879,7.631,13,13.468,15.957M58.025,6.051H71.493c-2.918,7.879-7.631,13-13.468,15.957M36.106,9.242,40.1,18.7l9.909.636-7.762,6.723L44.7,35.687l-8.792-5.309-8.391,5.309,2.329-10L22.2,19.341l10.233-.874Z" transform="translate(419 2611)" fill="none" stroke="#b2d33c" stroke-linecap="round" stroke-linejoin="round" stroke-width="2"/>
  </g>
</svg>
