<svg xmlns="http://www.w3.org/2000/svg" width="78.705" height="70" viewBox="0 0 78.705 70">
  <g id="Group_657" data-name="Group 657" transform="translate(-289 -2491)">
    <ellipse id="Ellipse_960" data-name="Ellipse 960" cx="6.28" cy="6.287" rx="6.28" ry="6.287" transform="translate(320.197 2507.682)" fill="none" stroke="#fff" stroke-linecap="round" stroke-linejoin="round" stroke-width="2"/>
    <path id="Path_200" data-name="Path 200" d="M92.07,128.381v-4.438c0-7.545,4.6-10.06,9.044-10.06h2.009c4.44,0,9.044,2.515,9.044,10.06v4.438" transform="translate(224.359 2406.373)" fill="none" stroke="#fff" stroke-linecap="round" stroke-linejoin="round" stroke-width="2"/>
    <path id="Path_201" data-name="Path 201" d="M26.85,73.95a6.164,6.164,0,0,0-.659-.067,6.291,6.291,0,0,0-2.472,12.06" transform="translate(273.816 2433.799)" fill="none" stroke="#fff" stroke-linecap="round" stroke-linejoin="round" stroke-width="2"/>
    <path id="Path_202" data-name="Path 202" d="M45.883,90.516a6.225,6.225,0,0,0,2.7-10.241" transform="translate(256.026 2429.416)" fill="none" stroke="#fff" stroke-linecap="round" stroke-linejoin="round" stroke-width="2"/>
    <path id="Path_203" data-name="Path 203" d="M54.044,128.457v-4.438c0-7.05-4.045-9.706-8.219-10.025" transform="translate(256.066 2406.297)" fill="none" stroke="#fff" stroke-linecap="round" stroke-linejoin="round" stroke-width="2"/>
    <path id="Path_204" data-name="Path 204" d="M15.519,114.213c-3.9.529-7.519,3.257-7.519,9.956v4.438" transform="translate(282 2406.147)" fill="none" stroke="#fff" stroke-linecap="round" stroke-linejoin="round" stroke-width="2"/>
    <path id="Path_205" data-name="Path 205" d="M192.5,90.516a6.225,6.225,0,0,1-2.7-10.241" transform="translate(158.525 2429.416)" fill="none" stroke="#fff" stroke-linecap="round" stroke-linejoin="round" stroke-width="2"/>
    <path id="Path_206" data-name="Path 206" d="M176.03,128.457v-4.438c0-7.05,4.045-9.706,8.219-10.025" transform="translate(166.793 2406.297)" fill="none" stroke="#fff" stroke-linecap="round" stroke-linejoin="round" stroke-width="2"/>
    <path id="Path_207" data-name="Path 207" d="M216.627,113.62c0-.044,0-.089,0-.133" transform="translate(138.96 2406.645)" fill="none" stroke="#fff" stroke-linecap="round" stroke-linejoin="round" stroke-width="2"/>
    <path id="Path_208" data-name="Path 208" d="M35.029,74.1a28.64,28.64,0,0,0-3.163,11.993" transform="translate(265.637 2433.653)" fill="none" stroke="#fff" stroke-linecap="round" stroke-linejoin="round" stroke-width="2"/>
    <path id="Path_209" data-name="Path 209" d="M206.265,74.819a28.769,28.769,0,0,1,3.041,12.156" transform="translate(146.063 2433.157)" fill="none" stroke="#fff" stroke-linecap="round" stroke-linejoin="round" stroke-width="2"/>
    <path id="Path_210" data-name="Path 210" d="M42.106,39.748a28.918,28.918,0,0,1,51.606.228" transform="translate(258.616 2468)" fill="none" stroke="#fff" stroke-linecap="round" stroke-linejoin="round" stroke-width="2"/>
    <path id="Path_211" data-name="Path 211" d="M32.014,114.005c0,.188-.014.373-.014.562a28.922,28.922,0,1,0,57.843,0c0-.22-.012-.438-.017-.657" transform="translate(265.545 2406.355)" fill="none" stroke="#fff" stroke-linecap="round" stroke-linejoin="round" stroke-width="2"/>
    <path id="Path_212" data-name="Path 212" d="M31.816,112.864c0-.207.008-.413.016-.618" transform="translate(265.671 2407.496)" fill="none" stroke="#fff" stroke-linecap="round" stroke-linejoin="round" stroke-width="2"/>
    <path id="Path_213" data-name="Path 213" d="M45.825,113.212c0-.12.014-.239.018-.359" transform="translate(256.066 2407.079)" fill="none" stroke="#fff" stroke-linecap="round" stroke-linejoin="round" stroke-width="2"/>
    <path id="Path_214" data-name="Path 214" d="M181.08,175.964l14.744,14.671a4.439,4.439,0,0,0,6.255,0,4.385,4.385,0,0,0,0-6.224L187.335,169.74" transform="translate(163.33 2368.076)" fill="none" stroke="#fff" stroke-linecap="round" stroke-linejoin="round" stroke-width="2"/>
    <path id="Path_215" data-name="Path 215" d="M206.072,73.95a6.164,6.164,0,0,1,.659-.067,6.291,6.291,0,0,1,2.472,12.06" transform="translate(146.195 2433.799)" fill="none" stroke="#fff" stroke-linecap="round" stroke-linejoin="round" stroke-width="2"/>
    <path id="Path_216" data-name="Path 216" d="M216.081,114.213c3.9.529,7.519,3.257,7.519,9.956v4.438" transform="translate(139.333 2406.147)" fill="none" stroke="#fff" stroke-linecap="round" stroke-linejoin="round" stroke-width="2"/>
  </g>
</svg>
