<svg xmlns="http://www.w3.org/2000/svg" width="25.956" height="26.01" viewBox="0 0 25.956 26.01">
  <path id="Path_222" data-name="Path 222" d="M22,3.66A12.979,12.979,0,0,0,2.539,20.593l-.232,1.048L1.283,26.26,5.8,24.839l1.023-.322A12.979,12.979,0,0,0,22,3.66M19.582,17.994a3.083,3.083,0,0,1-2.969,1.333C12.9,19.686,7.2,13.774,7.552,10a3.244,3.244,0,0,1,.713-2.479,3.687,3.687,0,0,1,.989-.918c1.148-.427,1.475.125,1.475.125S11.69,9.29,11.81,9.693s-.542,1.22-.885,1.429-.16.647-.16.647a14.313,14.313,0,0,0,3.83,4.223s.418.224.659-.1,1.116-.9,1.506-.742c.657.267,2.671.932,2.976,1.54a1.453,1.453,0,0,1-.154,1.3" transform="translate(-0.25 -0.25)" fill="#fff" fill-rule="evenodd"/>
</svg>
